<svg version="1.1" id="Layer_1" xmlns="http://www.w3.org/2000/svg" xmlns:xlink="http://www.w3.org/1999/xlink" x="0px" y="0px"
	 width="100%" viewBox="0 0 1024 1024" enable-background="new 0 0 1024 1024" xml:space="preserve">
<path fill="#000000" opacity="1.000000" stroke="none" 
	d="
M716.704712,549.780029 
	C698.818848,562.617676 678.751770,568.274658 657.548279,570.056396 
	C630.021362,572.369446 603.012146,569.299316 576.811340,560.307129 
	C568.612061,557.493103 560.649048,554.045532 553.429321,549.126282 
	C543.008606,542.026001 542.609924,535.444641 552.318970,527.295410 
	C555.387695,524.719666 558.391846,521.472473 563.648376,522.438354 
	C561.341431,527.502380 564.295288,529.781006 568.276672,530.846924 
	C574.924622,532.626587 580.408203,536.745117 586.614014,539.345947 
	C589.996704,540.763611 600.799805,534.868286 601.892883,531.393921 
	C602.736450,528.712585 600.876038,527.273132 599.088013,526.130920 
	C592.203979,521.733521 585.449402,516.955261 576.409302,519.835266 
	C574.353027,520.490356 571.817749,520.432312 569.094543,519.283081 
	C571.862976,516.301025 575.234924,516.060913 578.634399,515.884949 
	C580.431030,515.791931 582.746216,516.448730 583.757202,514.688660 
	C586.539734,509.844360 589.744324,511.892395 592.913269,513.836792 
	C599.387695,517.809387 606.618225,520.315186 612.263916,525.971985 
	C616.658386,530.375061 633.082764,527.970947 637.453613,523.363831 
	C637.911743,522.880981 638.444458,522.413940 638.734985,521.835327 
	C643.329834,512.683655 651.751099,508.618774 660.693909,505.223480 
	C661.781128,504.810669 662.847107,504.316650 663.869080,503.761047 
	C672.857971,498.874329 673.664856,489.061523 664.426270,484.426361 
	C652.702881,478.544586 639.990479,474.683075 626.465637,475.777740 
	C619.446045,476.345947 613.952942,480.192810 609.178101,485.004364 
	C602.732666,491.499390 595.607971,497.386597 590.433594,505.053619 
	C588.682678,507.648071 586.038147,507.740265 583.450256,508.244995 
	C569.164490,511.031311 555.096008,514.447266 543.143555,523.395325 
	C531.464661,532.138672 531.311768,543.340088 542.770752,552.381409 
	C554.907776,561.957703 569.135742,567.233093 583.719177,571.534180 
	C607.593628,578.575562 632.070618,580.636475 656.872253,579.720093 
	C660.405029,579.589539 663.908203,577.964417 667.622559,579.113464 
	C667.141602,581.463257 665.219666,581.564026 663.837769,582.246765 
	C632.593811,597.684021 599.502258,606.608276 564.940125,610.504700 
	C509.753357,616.726318 456.930054,608.640259 407.169373,583.689026 
	C352.229309,556.140564 313.175629,513.408936 289.008087,457.037201 
	C274.923370,424.184143 266.822906,389.924164 268.048737,354.048828 
	C270.508881,282.049408 298.613373,222.073273 354.359955,175.921127 
	C390.756958,145.788376 433.041168,128.904114 479.888977,123.631279 
	C546.960510,116.082245 606.659851,133.919449 658.372620,177.243591 
	C688.749146,202.692505 710.289856,234.668304 724.450928,271.638428 
	C724.909241,272.834961 725.801575,274.007965 724.825500,275.602997 
	C722.660706,275.087158 722.549866,272.996216 721.851868,271.510681 
	C691.635437,207.196533 642.128662,165.633896 573.934875,146.190033 
	C547.544556,138.665451 520.486816,136.242188 493.272461,138.496948 
	C442.056030,142.740311 396.007874,160.406601 357.114899,194.641022 
	C315.660675,231.129883 291.551971,277.315460 283.426117,331.656128 
	C276.389435,378.713104 283.872223,423.840973 303.993591,466.947205 
	C306.017090,471.282196 308.414520,472.261810 312.940491,471.231873 
	C341.305878,464.776825 370.074982,461.557770 399.158905,462.088959 
	C447.873993,462.978638 495.648560,470.251709 542.326660,484.362305 
	C545.481750,485.316071 549.490967,485.567688 549.375610,490.686646 
	C556.793579,489.337402 563.384644,491.835083 570.683899,494.216736 
	C569.901123,491.937134 568.480957,491.413116 567.286743,490.848328 
	C549.620300,482.493408 531.416443,475.772247 512.391602,471.009338 
	C492.166565,465.945984 471.737488,462.258514 451.109161,459.555939 
	C444.517609,458.692322 437.830811,458.565430 431.191711,458.048248 
	C429.629059,457.926483 427.808228,458.623993 426.569611,456.815308 
	C427.442413,454.666138 429.472137,454.936188 431.151642,454.703735 
	C439.925842,453.489258 445.639435,448.916748 448.439941,440.302216 
	C452.475861,427.887482 454.436920,415.266571 451.775665,402.440369 
	C449.034393,389.228638 440.324158,380.143860 429.092163,373.360168 
	C425.410645,371.136688 420.569550,372.876160 419.351898,376.981781 
	C414.919922,391.925079 403.786560,397.633392 389.521149,399.583374 
	C385.662598,400.110840 385.277283,398.649902 385.652649,395.506989 
	C387.438232,380.556641 399.828583,370.274261 414.851166,371.403046 
	C416.985138,371.563385 419.165833,372.019257 421.140411,369.883331 
	C413.112030,363.037598 403.896027,361.969971 394.061646,363.640747 
	C392.284515,363.942688 391.490906,365.661469 390.546661,367.014618 
	C379.487701,382.862854 360.997040,386.210175 342.242950,379.180573 
	C341.749847,376.206512 344.008240,374.339844 345.368195,372.205322 
	C352.927246,360.340790 371.431732,349.931641 389.042358,359.569305 
	C391.845032,361.103088 394.451843,360.715759 398.007599,359.265717 
	C382.441315,351.384735 367.409973,343.774628 352.378632,336.164490 
	C361.114105,334.945129 368.176208,340.195984 376.259766,341.316803 
	C375.005402,333.020905 373.472992,331.273285 365.598053,329.584534 
	C357.231384,327.790283 350.426971,323.699677 345.796997,316.382904 
	C344.425018,314.214813 343.065552,313.298401 340.151001,313.667419 
	C334.637329,314.365479 330.080322,311.931946 326.839844,307.372833 
	C324.209625,303.672333 322.442841,299.583130 321.386871,295.130707 
	C320.576996,291.715759 321.984344,290.975403 325.014343,291.220245 
	C328.924500,291.536194 332.214783,293.615601 336.266449,295.101837 
	C336.289307,290.355804 338.973358,290.216248 342.544006,290.814545 
	C359.802826,293.706573 372.602753,306.227966 374.868866,323.055145 
	C376.486267,335.065186 384.307709,342.045105 394.046722,347.515167 
	C396.181946,348.714417 398.738220,349.209503 401.145996,349.861023 
	C402.615387,350.258575 404.679413,351.617126 405.418304,349.270416 
	C406.119293,347.044098 403.930328,346.770844 402.334564,346.288361 
	C394.896454,344.039368 391.003601,338.541260 388.806335,331.480713 
	C387.650543,327.766754 389.051758,326.473389 392.722076,327.163513 
	C400.218903,328.572998 405.486450,332.655640 407.941467,339.997345 
	C410.795807,348.533173 415.726715,354.523132 424.902771,357.303284 
	C433.329254,359.856415 441.140839,364.192261 448.080292,369.844086 
	C449.572296,371.059235 450.935455,372.619751 453.578094,372.993622 
	C454.932434,364.621704 452.935883,356.868469 450.301208,349.476135 
	C439.665070,319.633179 418.849670,299.444427 390.002197,287.073914 
	C387.710449,286.091156 385.862762,286.750244 383.793457,287.492096 
	C370.933563,292.102356 358.274811,292.625916 346.581482,284.412964 
	C338.779907,278.933350 333.681671,271.164581 329.822662,262.736969 
	C331.048340,260.586426 333.003784,260.396088 334.727356,259.988953 
	C338.288666,259.147736 341.936584,257.817047 345.481293,257.999603 
	C349.114136,258.186646 350.526367,252.493866 353.691193,254.730438 
	C363.032196,261.331696 376.226776,262.566284 382.064087,273.811188 
	C385.325104,280.093170 390.699371,282.828278 396.394318,285.478912 
	C403.636810,288.849823 411.320343,291.224884 418.392731,295.009705 
	C419.149139,295.414581 419.959808,295.555450 421.008728,294.865173 
	C422.246918,290.887238 418.758820,286.811401 420.641876,281.118774 
	C425.241058,290.057068 427.765594,298.906952 434.274506,305.001434 
	C440.782349,311.094879 446.641266,317.810089 453.319153,325.140167 
	C455.493805,319.654144 455.449951,315.026276 455.669067,310.509277 
	C456.614349,291.022156 452.879944,272.056335 449.153168,253.083252 
	C447.903198,246.719543 447.064117,240.273834 446.104370,233.855545 
	C445.917389,232.605164 445.518982,231.203018 447.522095,229.600769 
	C450.206787,239.117844 451.400879,248.810242 456.418091,257.929626 
	C458.251923,254.486435 458.459412,251.608765 456.972900,248.617493 
	C450.303955,235.197647 449.662323,221.821793 457.115997,208.436172 
	C458.218201,206.456757 458.050995,204.587662 456.754608,202.398590 
	C451.862885,194.138428 454.126801,182.941956 461.941650,176.020157 
	C466.927307,178.742661 467.220032,184.449600 469.544281,188.601868 
	C471.714355,189.467453 472.455658,186.774673 474.878021,187.318802 
	C479.749390,193.266541 481.360748,200.946793 482.185760,208.641037 
	C483.813751,223.824219 478.711304,236.965195 468.008362,247.652069 
	C460.686646,254.962769 460.098022,263.740662 461.256897,272.961487 
	C461.907990,278.142242 463.605957,283.191437 465.058960,289.244049 
	C479.163910,272.239563 483.026459,253.203812 483.061951,232.764587 
	C486.787872,238.971252 485.611359,246.181732 488.357880,253.253632 
	C496.327942,247.594849 501.664948,239.398514 510.045868,235.066177 
	C511.649323,236.687256 509.469727,237.614258 509.862427,238.965195 
	C512.051636,240.412384 513.561401,238.864349 514.905945,237.466766 
	C525.677429,226.269974 539.796204,224.023956 554.233521,223.081863 
	C557.332581,222.879639 560.630615,224.577881 563.715576,225.726761 
	C565.679260,226.458069 564.903259,228.119659 564.282776,229.546143 
	C563.235413,231.953766 561.477905,234.067993 561.054504,237.569290 
	C567.785889,234.754868 573.942505,235.638657 579.943481,238.849640 
	C582.254822,240.086334 583.872253,237.633774 585.855591,237.019775 
	C588.950195,236.061798 592.417053,232.906799 595.097351,235.031570 
	C597.730713,237.119141 595.991577,241.281647 595.387024,244.488220 
	C592.810242,258.156860 584.627197,265.822388 571.937256,266.380737 
	C569.996521,262.584015 571.092651,258.664917 571.838318,254.815582 
	C572.925720,249.202637 572.910095,249.028015 567.385010,249.286621 
	C562.515564,249.514542 558.111145,248.753967 555.345703,244.520615 
	C553.111877,244.233002 552.561707,245.892090 551.565796,246.920792 
	C539.846741,259.025757 525.960083,263.860962 509.351440,259.437683 
	C504.307312,258.094299 503.826538,256.901886 505.861877,251.978851 
	C506.650146,250.072159 508.303375,248.298035 507.191010,245.898849 
	C504.743378,244.840897 503.314758,246.496719 502.133911,247.992767 
	C494.677673,257.439178 488.284912,267.570129 483.014923,278.397217 
	C482.434967,279.588745 481.831604,280.839233 482.969574,282.160339 
	C485.077606,282.524689 486.175842,280.740326 487.660339,279.822876 
	C491.939301,277.178375 496.416840,275.659302 501.416687,277.406586 
	C504.759491,278.574768 505.720032,280.564423 503.764374,283.928314 
	C499.834229,290.688599 492.910492,294.015717 485.069946,292.029846 
	C480.376587,290.841095 477.575256,292.459290 476.151672,296.706390 
	C468.702026,318.931519 469.348480,341.243134 475.685333,363.574097 
	C475.853241,364.165802 476.403198,364.649078 476.780060,365.190216 
	C479.339081,365.254028 480.207153,363.149841 481.409882,361.730865 
	C491.693115,349.599060 504.692200,341.424591 519.327332,335.687439 
	C529.343445,331.761017 538.491760,326.437500 546.889282,319.730804 
	C551.277405,316.226196 554.649475,311.965698 557.157227,306.999542 
	C562.920410,295.586456 572.435059,289.131256 584.685242,286.704102 
	C592.977356,285.061157 601.409790,284.227081 610.281982,285.146667 
	C610.684387,290.320801 607.321289,293.675781 604.819946,298.878418 
	C616.391785,290.407318 626.735168,292.045227 636.858093,299.366913 
	C632.390320,308.434784 615.031921,315.586182 603.867493,305.043549 
	C600.151306,301.534271 597.911499,302.378418 595.463318,305.782043 
	C587.000061,317.548218 575.085815,322.118500 561.363342,319.890839 
	C553.143799,318.556458 550.315552,323.794189 545.881042,328.429108 
	C556.627380,330.455841 567.944336,328.247528 578.555664,333.393951 
	C576.329285,335.593414 574.333862,334.724518 572.471802,334.489044 
	C558.439514,332.714264 545.417053,336.550171 532.603271,341.595093 
	C530.746460,342.326202 529.745605,343.737427 529.315308,345.487213 
	C520.898376,345.613464 515.333984,350.550354 509.795227,355.834259 
	C512.289185,359.409729 515.522217,359.598083 518.931152,359.728027 
	C531.372375,360.202271 541.091125,372.909973 538.579224,385.268555 
	C527.666809,386.471191 516.523865,378.144257 513.740967,366.652191 
	C513.040833,363.760925 512.974487,360.545197 509.243225,359.599243 
	C505.353119,358.613037 502.986908,360.896820 500.686951,363.457642 
	C487.900726,377.693939 483.157410,394.386505 484.803955,413.309113 
	C485.513153,421.459106 486.234406,429.543854 488.598755,437.396881 
	C492.044891,448.842926 498.534607,456.516327 510.987976,459.707550 
	C534.216736,465.659943 556.956665,473.322937 578.793640,484.003296 
	C575.555908,478.433624 571.291199,473.885071 566.169617,470.022003 
	C561.159912,466.243378 555.615723,463.464111 549.883057,460.818054 
	C561.530518,459.545227 571.146301,464.676941 580.985901,470.079926 
	C576.292725,459.144226 568.767761,450.837677 558.678467,444.554596 
	C571.135864,447.030334 580.829224,454.001801 589.875610,462.652161 
	C588.011658,448.604858 580.064026,438.187744 571.265442,428.055206 
	C578.887207,430.466003 583.877686,436.558411 590.618774,441.921082 
	C595.474731,419.484375 598.007568,397.322021 606.930115,376.576477 
	C615.454773,396.619354 616.979919,418.272064 622.933472,438.782288 
	C623.338074,438.673676 623.641541,438.592224 623.945007,438.510742 
	C621.892151,431.132477 626.117065,424.401093 627.168091,417.503143 
	C628.162537,410.975922 627.042725,403.436127 631.213806,397.300568 
	C633.100281,394.525482 632.301758,390.852600 632.779053,387.776733 
	C633.545837,382.835144 635.718933,378.163177 635.699585,373.126526 
	C635.686157,369.634064 635.174011,366.101318 638.192810,363.348938 
	C638.702087,362.884613 638.880737,361.787537 638.822266,361.012146 
	C638.163391,352.274750 643.812988,345.125946 644.884155,336.822388 
	C645.050842,335.529968 645.900818,334.343781 647.937622,334.022186 
	C651.137085,337.366730 649.780090,342.669525 652.181946,346.217224 
	C656.524658,352.631805 653.186035,360.791138 657.696350,367.192963 
	C659.328613,369.509796 658.204163,373.010559 657.652405,375.995544 
	C657.113037,378.913544 656.631226,381.695618 659.779541,384.026947 
	C662.364441,385.941071 661.338989,389.251740 660.879150,392.004547 
	C660.385681,394.958405 659.202393,397.939423 662.558655,400.061920 
	C662.805054,400.217743 663.102417,400.669678 663.038940,400.884094 
	C661.218750,407.028381 666.801636,412.398560 664.876343,418.530945 
	C664.312012,420.328400 664.202515,421.793945 667.725342,422.087616 
	C664.043701,414.563202 669.491028,408.350983 669.620728,401.113129 
	C669.729187,395.056000 671.157043,387.937164 673.125793,382.032562 
	C674.839417,376.892975 674.061157,371.478180 676.053894,367.186005 
	C678.527954,361.856995 678.878235,356.504639 680.294922,351.241302 
	C681.984985,344.962463 684.535400,338.580017 687.032349,332.365936 
	C687.276611,331.758240 687.724731,331.232544 688.119019,330.603882 
	C692.484070,332.949371 691.764282,337.147278 693.036316,340.342682 
	C693.391113,341.233948 692.883545,342.713440 693.430542,343.244476 
	C697.762451,347.450592 697.671875,352.457703 696.465393,357.768646 
	C696.368408,358.195526 696.542053,358.979950 696.847351,359.158813 
	C703.689026,363.166504 699.589905,369.082062 699.348267,374.618195 
	C704.316284,375.411957 704.321472,378.876068 703.852295,382.763031 
	C703.461914,385.997284 701.013245,389.837280 707.017944,391.237579 
	C709.116333,391.726959 708.899414,395.527832 708.478699,397.640533 
	C707.276367,403.677795 708.568359,408.918976 712.174072,413.750336 
	C712.463257,414.137787 712.802795,414.716278 712.717224,415.121002 
	C711.007141,423.209351 715.670471,431.152954 713.200378,439.270844 
	C711.878479,443.614990 707.111267,445.491974 703.540466,442.673279 
	C700.665955,440.404144 697.881897,438.604004 693.997498,439.828461 
	C693.360229,440.029388 692.429077,439.493958 691.695435,439.162323 
	C684.983643,436.128479 676.108582,437.680359 671.344604,442.919128 
	C670.108276,444.278656 669.000000,444.779694 667.079773,444.687164 
	C658.341309,444.266113 651.785156,448.513885 648.070923,456.835083 
	C646.891785,459.476837 644.283936,460.492615 642.429871,462.354675 
	C640.671997,464.120117 638.720703,465.697906 638.511597,468.753235 
	C640.620972,468.969879 640.641724,467.157928 641.529724,466.178070 
	C646.294189,460.920624 651.122925,455.709717 656.158569,450.713745 
	C659.760681,447.140106 663.900391,444.944611 669.466431,445.481506 
	C671.509033,445.678558 673.777222,443.273682 675.979980,442.127594 
	C680.887756,439.574036 685.798523,436.450745 691.000916,441.558899 
	C691.679993,442.225647 692.439026,442.374573 693.261536,441.937531 
	C697.369934,439.754395 700.652893,440.850006 703.227722,444.496887 
	C704.156860,445.812866 705.186096,445.896881 706.673279,445.544128 
	C711.736694,444.343048 715.931763,445.587738 718.504822,450.434998 
	C719.372864,452.070190 720.622559,452.692352 722.377014,453.135376 
	C728.987976,454.804688 730.671143,456.729065 731.277832,463.299622 
	C731.451538,465.180756 732.082092,466.178467 733.760864,467.131317 
	C739.516846,470.398499 741.238708,474.088013 739.990356,480.856018 
	C739.519104,483.410950 739.906982,485.132507 741.603210,487.150513 
	C745.546326,491.841492 745.399170,498.148987 741.197449,502.616089 
	C739.385315,504.542633 738.819702,506.251007 739.213684,508.791229 
	C739.880310,513.088562 738.350952,516.498108 734.652222,519.113220 
	C730.357544,522.149658 730.691956,524.063904 735.474121,526.405151 
	C739.580017,528.415283 743.708130,530.426331 746.633057,535.242188 
	C741.528870,536.307739 737.239136,537.583923 732.866943,538.005920 
	C728.739258,538.404297 725.745361,539.701599 723.398315,543.328308 
	C721.819885,545.767273 719.164124,547.509094 716.704712,549.780029 
M653.373352,518.831787 
	C649.112183,523.843140 646.300781,529.570435 644.512939,535.991272 
	C648.855591,538.617371 652.285400,541.855591 657.081970,543.389587 
	C675.258118,549.202393 692.371155,544.715637 709.407776,538.711609 
	C710.184326,538.437927 710.892761,537.966614 711.624756,537.572021 
	C715.767883,535.338318 716.971619,531.793213 714.609985,527.947815 
	C709.246582,519.214844 702.984497,511.275665 692.643005,507.879272 
	C687.257874,506.110626 681.907593,505.737335 676.539978,507.877319 
	C668.810791,510.958832 661.109253,514.099854 653.373352,518.831787 
M438.377777,546.164124 
	C440.192230,548.388733 441.209015,551.034546 442.362488,553.615906 
	C443.378448,555.889587 444.280945,558.514160 447.353668,558.518799 
	C450.539185,558.523560 452.518524,556.319031 453.895477,553.787598 
	C454.746490,552.223022 455.178558,550.354675 455.460449,548.569336 
	C456.755341,540.368347 460.144073,533.051758 464.531616,526.100952 
	C468.578827,519.689331 474.162354,514.717163 479.527618,509.500214 
	C484.443390,504.720367 484.173828,498.432465 478.993134,496.205109 
	C475.329437,494.629944 471.478851,493.933014 467.466187,495.902588 
	C460.596802,499.274323 453.452087,502.249237 447.303833,506.787598 
	C437.643646,513.918274 426.822296,520.036255 422.663330,532.589661 
	C420.857880,538.039368 421.158142,539.198364 426.945923,540.422668 
	C431.042419,541.289124 435.194733,541.875122 438.377777,546.164124 
M623.163269,550.784424 
	C628.402893,546.814575 628.197144,543.352173 622.488831,540.420410 
	C614.074951,536.099060 606.415283,538.650146 599.041565,543.173279 
	C597.809021,543.929260 596.267639,544.902527 596.593994,546.602966 
	C596.973145,548.578674 598.872559,548.715149 600.524963,548.990295 
	C606.683838,550.016113 613.102844,549.105042 619.091309,551.590210 
	C619.988525,551.962585 621.326050,551.273987 623.163269,550.784424 
z"/>
<path fill="#000000" opacity="1.000000" stroke="none" 
	d="
M593.179504,686.499084 
	C582.969177,686.218689 573.144409,686.163025 563.320740,686.024780 
	C560.300903,685.982300 559.236328,687.373413 559.273621,690.301270 
	C559.375549,698.299194 559.548767,706.309692 559.212463,714.294922 
	C558.996216,719.429138 563.225220,720.616028 566.113647,723.024231 
	C563.501892,725.794128 537.657532,726.413452 532.610474,724.042297 
	C532.304871,723.095276 532.678528,722.205444 533.487488,721.976929 
	C539.175110,720.370056 539.560913,715.669739 539.392944,711.159546 
	C538.667053,691.665710 539.250671,672.171204 539.087646,652.678589 
	C539.050720,648.249146 539.217224,643.834412 533.866943,642.001648 
	C532.843506,641.651123 532.299500,640.658447 532.704895,639.567749 
	C533.182434,638.282837 534.440125,638.061401 535.610291,638.048096 
	C540.941956,637.987183 546.274475,637.989563 551.606689,637.977661 
	C555.439209,637.969177 559.272278,637.937744 563.103943,637.995117 
	C564.270325,638.012512 565.548523,638.238708 565.891724,639.620544 
	C566.245239,641.043945 565.243408,641.792053 564.091125,642.204651 
	C560.056824,643.648865 559.286743,646.895142 559.294922,650.627075 
	C559.309814,657.459778 559.380737,664.293823 559.267212,671.124634 
	C559.217163,674.133301 559.975769,675.800171 563.430908,675.743958 
	C572.427795,675.597717 581.428894,675.635620 590.427429,675.713257 
	C593.396484,675.738953 594.677795,674.494751 594.653442,671.547913 
	C594.594299,664.382568 594.721741,657.214905 594.592896,650.051331 
	C594.529968,646.552734 593.469299,643.455078 589.640137,642.190857 
	C588.629517,641.857178 587.891235,641.139893 588.005005,639.977966 
	C588.153198,638.463928 589.395325,638.151367 590.563110,638.140320 
	C599.726440,638.053833 608.890442,638.012634 618.054199,638.016724 
	C619.217163,638.017273 620.481567,638.324524 620.775208,639.728210 
	C621.075867,641.165955 619.962769,641.811768 618.905945,642.327393 
	C615.519409,643.979919 614.953491,646.979431 614.954834,650.305481 
	C614.963562,671.303467 614.976562,692.301453 614.941895,713.299438 
	C614.935669,717.058960 615.648254,720.275818 619.691833,721.710205 
	C620.715820,722.073364 621.367188,722.786987 620.927002,724.661133 
	C610.102478,724.661133 599.124817,724.661133 588.133667,724.661133 
	C588.133667,723.668030 588.024231,723.107910 588.149353,723.049500 
	C594.824036,719.929932 595.057678,714.165039 594.704346,707.916992 
	C594.403687,702.600952 594.671631,697.254395 594.617432,691.922058 
	C594.599304,690.132385 595.004517,688.213745 593.179504,686.499084 
z"/>
<path fill="#000000" opacity="1.000000" stroke="none" 
	d="
M236.059967,641.661560 
	C246.311264,646.328613 250.836380,653.964233 250.397476,664.890503 
	C249.946564,676.115967 243.009308,682.153076 233.188950,686.681946 
	C237.525040,693.636902 241.568909,700.260437 245.752640,706.794373 
	C249.794861,713.107300 252.953125,720.197876 260.679352,722.841370 
	C259.222900,725.873535 257.351532,725.276855 255.799454,725.296021 
	C249.803726,725.370117 243.803238,725.217346 237.811493,725.390442 
	C234.783951,725.477905 232.942398,724.400818 231.412247,721.741211 
	C226.098480,712.505188 220.468231,703.451538 215.136108,694.225769 
	C213.394592,691.212646 211.249954,689.715332 207.821320,690.706360 
	C204.352921,691.708923 205.561386,694.689575 205.395432,697.003113 
	C205.240845,699.158142 205.240829,701.337219 205.355530,703.496033 
	C205.742767,710.785034 202.718140,719.213867 212.579987,723.157593 
	C208.680756,725.967834 182.297180,726.124146 178.390335,723.825073 
	C178.399948,723.659729 178.356033,723.378235 178.426773,723.345642 
	C186.456985,719.647339 184.876373,712.401550 184.889557,705.777100 
	C184.919708,690.619141 184.907059,675.461121 184.907318,660.303101 
	C184.907532,648.011780 184.904648,648.011780 178.530518,640.032532 
	C183.279770,636.333862 223.951019,637.401184 236.059967,641.661560 
M205.912338,679.527222 
	C214.277161,683.905090 225.101929,679.780029 228.020935,671.102173 
	C232.707214,657.170349 224.625168,647.253662 209.432220,648.101868 
	C206.478821,648.266785 205.246445,649.285095 205.303833,652.280273 
	C205.472778,661.096497 205.493942,669.915527 205.912338,679.527222 
z"/>
<path fill="#000000" opacity="1.000000" stroke="none" 
	d="
M432.658752,642.457031 
	C429.377258,640.243408 430.177643,638.418579 433.211060,638.265015 
	C440.352325,637.903503 447.523682,638.054749 454.681183,638.140442 
	C457.183960,638.170410 458.206635,640.406677 459.498138,642.105896 
	C471.388489,657.750000 483.260956,673.407715 495.165558,689.040894 
	C496.229218,690.437683 496.999237,692.224854 499.785645,692.792419 
	C499.785645,688.851135 499.789062,685.097778 499.784973,681.344421 
	C499.773895,671.184570 499.701904,661.024292 499.776428,650.865112 
	C499.804413,647.050171 498.899323,643.947998 495.050781,642.369568 
	C493.955048,641.920227 492.769958,641.377075 493.015717,639.927429 
	C493.307678,638.204834 494.870728,638.132996 496.153473,638.110840 
	C502.147430,638.007446 508.143250,637.984863 514.138245,637.997375 
	C515.303650,637.999817 516.574524,638.241882 516.931641,639.616089 
	C517.300476,641.035278 516.323853,641.794678 515.169922,642.221069 
	C510.680420,643.880127 510.265594,647.588074 510.270599,651.607239 
	C510.298035,673.592590 510.344971,695.578186 510.219177,717.562805 
	C510.204590,720.118103 511.825867,723.507996 508.255920,725.090454 
	C504.734802,726.651245 496.790833,725.124817 494.845367,722.556824 
	C485.291962,709.946289 475.839966,697.258850 466.297668,684.639771 
	C460.683807,677.215942 454.968414,669.868896 449.004028,662.103699 
	C447.825287,664.140381 448.218994,665.955627 448.212830,667.640259 
	C448.160004,682.130432 448.222870,696.621094 448.123138,711.110779 
	C448.091522,715.704468 448.526672,719.845642 453.625977,721.687561 
	C454.450195,721.985291 455.055939,722.551819 454.967285,723.541321 
	C454.854034,724.805603 453.917236,725.205627 452.881134,725.212830 
	C446.220764,725.259277 439.559998,725.266785 432.899506,725.240662 
	C431.856995,725.236511 430.902374,724.858215 430.816742,723.576721 
	C430.752197,722.610474 431.321655,722.037781 432.174316,721.731018 
	C437.260895,719.900940 437.750946,715.710449 437.741791,711.154785 
	C437.701996,691.334717 437.679474,671.514404 437.745178,651.694519 
	C437.758331,647.721985 436.851288,644.443298 432.658752,642.457031 
z"/>
<path fill="#000000" opacity="1.000000" stroke="none" 
	d="
M921.076843,709.893799 
	C909.667053,694.143127 898.470947,678.680481 886.770630,662.521545 
	C884.679932,668.196106 885.130615,673.060242 885.482483,677.742065 
	C886.333557,689.066833 885.093506,700.375671 885.659851,711.688049 
	C885.896973,716.424561 886.526306,720.705139 892.018738,722.225586 
	C892.436218,722.341125 892.633850,723.250977 892.828003,723.601135 
	C892.419128,724.818481 891.670715,725.216614 890.815308,725.223877 
	C884.486206,725.277710 878.156677,725.308594 871.827576,725.281555 
	C870.698425,725.276733 869.357666,725.240723 869.125732,723.681702 
	C868.945740,722.471741 869.812805,721.898071 870.782104,721.507141 
	C874.932129,719.833252 875.571594,716.199646 875.584167,712.441589 
	C875.652771,691.950867 875.636292,671.459778 875.611816,650.968811 
	C875.607361,647.235657 874.397888,644.099670 870.734802,642.389587 
	C869.624573,641.871277 868.660217,641.147156 869.019409,639.725342 
	C869.374695,638.318359 870.659668,638.102783 871.800354,638.093628 
	C878.461304,638.040588 885.123413,638.026367 891.784119,638.099609 
	C894.102600,638.125061 895.098816,640.065674 896.271729,641.680847 
	C907.722473,657.449341 919.171692,673.218933 930.653687,688.964661 
	C931.612427,690.279358 932.310425,691.880615 934.029846,692.645020 
	C935.454590,691.276978 934.830627,689.516418 934.838501,687.971802 
	C934.901062,675.644226 934.825195,663.315857 934.902649,650.988464 
	C934.927551,647.029297 934.282898,643.653503 929.927063,642.267578 
	C928.924683,641.948608 928.105652,641.287415 928.083557,640.159058 
	C928.060364,638.967346 928.935120,638.287598 929.991821,638.248352 
	C936.804199,637.995422 943.623779,637.578308 950.424377,638.386597 
	C950.936279,638.447388 951.368164,639.181213 951.734375,639.509888 
	C951.662598,640.094666 951.729004,640.625671 951.568604,640.706482 
	C945.285217,643.871094 945.118652,649.432068 945.177429,655.510986 
	C945.380188,676.499817 945.291138,697.492126 945.189575,718.482483 
	C945.178589,720.759583 946.440674,723.696411 943.328918,725.117676 
	C940.478149,726.419678 932.179321,725.171204 930.653625,723.143188 
	C927.450195,718.884766 924.402283,714.509277 921.076843,709.893799 
z"/>
<path fill="#000000" opacity="1.000000" stroke="none" 
	d="
M145.299042,724.521179 
	C131.870300,728.183228 118.923889,728.337280 106.172363,723.414795 
	C90.055679,717.193237 81.532150,704.883057 79.912277,688.193115 
	C76.835358,656.490906 99.625534,633.993958 131.471954,636.392334 
	C139.346085,636.985291 146.915848,638.677063 154.438309,640.873596 
	C157.219711,641.685730 158.536453,643.202881 158.408707,646.261475 
	C158.207336,651.082764 158.412704,655.919800 158.318542,660.747620 
	C158.288803,662.272522 158.977600,664.490234 156.655853,664.857483 
	C154.481476,665.201294 154.230774,662.993958 153.532654,661.567505 
	C147.515549,649.272949 134.521790,643.554688 121.335976,647.242004 
	C112.759163,649.640442 107.148415,655.159485 104.300186,663.375671 
	C99.868324,676.160156 100.136337,688.951172 105.820290,701.296997 
	C111.362694,713.335449 123.856453,718.971313 136.535828,715.847839 
	C139.487106,715.120850 140.821411,713.672424 140.687424,710.670410 
	C140.591003,708.510071 140.758102,706.338318 140.673538,704.176880 
	C140.391968,696.978516 143.100311,688.778809 133.600418,683.976929 
	C144.706604,682.530579 155.240433,682.604004 166.214539,683.725281 
	C156.807755,690.129272 160.851822,699.228882 160.422256,707.065674 
	C159.664902,720.882263 163.225754,718.376160 148.074219,723.663635 
	C147.289108,723.937683 146.486282,724.160950 145.299042,724.521179 
z"/>
<path fill="#000000" opacity="1.000000" stroke="none" 
	d="
M357.856323,657.045044 
	C357.850067,654.554565 357.781097,652.553223 357.850983,650.556763 
	C357.984406,646.744324 357.021393,643.626099 353.036591,642.182922 
	C352.058044,641.828491 351.357788,641.123230 351.217194,639.889221 
	C351.777161,637.759094 353.662903,638.029541 355.234558,638.024780 
	C372.727020,637.971863 390.219666,637.989868 407.712158,637.944946 
	C410.644775,637.937378 412.443878,638.783997 412.485260,642.170349 
	C412.540131,646.661255 412.975983,651.146423 413.138855,655.638000 
	C413.190430,657.060791 413.481445,658.888306 411.449036,659.283264 
	C409.770874,659.609497 409.168884,658.179138 408.674225,656.937988 
	C406.060242,650.378967 400.710022,648.428711 394.262695,648.349060 
	C390.598175,648.303711 386.930206,648.425781 383.268188,648.320557 
	C380.369080,648.237244 378.941315,649.362061 378.967590,652.382935 
	C379.024078,658.879089 378.945312,665.376221 378.955292,671.872986 
	C378.958344,673.866150 379.463501,675.635742 381.916962,675.659119 
	C386.078491,675.698730 390.252838,675.799500 394.399445,675.530334 
	C397.362518,675.338013 398.983643,673.128296 400.135590,670.556824 
	C400.611725,669.493835 401.239594,668.358154 402.680878,668.578369 
	C404.205872,668.811279 404.259521,670.106201 404.262024,671.280090 
	C404.275635,677.610413 404.276825,683.940918 404.229614,690.270935 
	C404.221069,691.418274 404.154480,692.707703 402.633850,692.996521 
	C401.450287,693.221313 400.658142,692.497864 400.322876,691.520203 
	C398.446014,686.046936 393.969879,685.852783 389.303223,685.961365 
	C387.471527,686.004028 385.635681,686.049561 383.806427,685.976257 
	C380.543091,685.845459 378.852478,687.097900 378.917542,690.616821 
	C379.037628,697.111694 379.061432,703.613464 378.898376,710.106628 
	C378.803223,713.894714 380.548462,715.067322 384.063660,714.930115 
	C388.221832,714.767883 392.399017,714.759338 396.555206,714.954895 
	C403.750122,715.293579 409.125610,712.491882 412.775299,706.271423 
	C413.580933,704.898376 414.330048,702.825195 416.392761,703.549316 
	C418.578461,704.316528 417.492706,706.451050 417.316986,707.946533 
	C416.773529,712.571777 415.893219,717.158142 415.376648,721.785645 
	C415.060913,724.614136 413.510773,725.334473 410.995392,725.331177 
	C392.336609,725.306763 373.677704,725.338318 355.018860,725.327026 
	C353.574890,725.326172 351.961914,725.481506 351.076538,722.995667 
	C360.057800,719.888245 357.761200,712.218079 357.807526,705.516296 
	C357.917969,689.523621 357.851379,673.529724 357.856323,657.045044 
z"/>
<path fill="#000000" opacity="1.000000" stroke="none" 
	d="
M300.609680,686.236328 
	C298.156677,687.114197 298.364441,688.899597 298.359741,690.542236 
	C298.340637,697.204529 298.461548,703.869263 298.316406,710.528381 
	C298.245514,713.780701 299.552216,715.036743 302.738556,714.932678 
	C306.731476,714.802246 310.744202,714.718506 314.727203,714.961670 
	C322.747650,715.451233 329.119568,712.969604 333.136078,705.637512 
	C333.852478,704.329773 334.753174,702.824402 336.607819,703.678040 
	C338.218079,704.419250 337.545990,706.000427 337.381805,707.245300 
	C336.730103,712.186707 335.926819,717.108887 335.323761,722.055664 
	C335.049683,724.303711 333.947998,725.299866 331.752563,725.297913 
	C312.266266,725.280334 292.779968,725.276123 273.293701,725.242737 
	C272.464966,725.241272 271.646027,724.976257 271.269409,724.070374 
	C271.248291,723.743774 271.114563,723.182373 271.227875,723.127136 
	C278.270844,719.688904 277.900818,713.382751 277.845337,706.941650 
	C277.690338,688.954590 277.724518,670.964905 277.841156,652.977234 
	C277.873199,648.031128 277.549255,643.562561 271.963318,641.653625 
	C271.687225,641.559265 271.446686,641.219727 271.296814,640.937500 
	C271.148468,640.658264 271.136078,640.306885 271.040131,639.880737 
	C271.878967,637.651611 273.941956,638.063354 275.652313,638.058167 
	C292.807678,638.006104 309.963593,638.075134 327.118561,637.976501 
	C330.897736,637.954773 332.503754,639.257141 332.415955,643.227600 
	C332.320618,647.536377 332.936737,651.857544 333.136810,656.178284 
	C333.196777,657.472717 333.194397,659.008850 331.365173,659.253113 
	C329.863037,659.453674 329.361633,658.208557 328.941620,657.155945 
	C326.153870,650.169495 320.434204,648.330933 313.638916,648.334167 
	C309.974670,648.335938 306.309204,648.407654 302.646606,648.332764 
	C299.770264,648.273987 298.319611,649.411377 298.355194,652.435059 
	C298.431641,658.929871 298.425629,665.426514 298.370270,671.921631 
	C298.346375,674.717834 299.695953,675.795349 302.364288,675.741333 
	C305.693970,675.673950 309.027008,675.676025 312.356812,675.740479 
	C315.516357,675.801697 317.713379,674.318176 319.387421,671.769531 
	C320.247681,670.459839 320.519501,668.477905 322.670837,668.545166 
	C323.888153,668.941345 324.164490,669.886047 324.166077,670.929138 
	C324.175995,677.423950 324.175568,683.918762 324.137695,690.413391 
	C324.131897,691.412842 323.944489,692.462158 322.847565,692.907471 
	C321.751251,693.352539 320.709869,692.937012 320.351593,691.930420 
	C318.081543,685.553101 312.768372,685.840149 307.523132,685.943787 
	C305.360077,685.986572 303.197998,686.079285 300.609680,686.236328 
z"/>
<path fill="#000000" opacity="1.000000" stroke="none" 
	d="
M802.621094,684.999878 
	C802.636841,674.500488 802.696716,664.500854 802.650330,654.501709 
	C802.627136,649.507385 802.932617,644.448975 797.122742,641.709045 
	C795.029175,640.721863 795.693909,638.887634 797.930542,638.282959 
	C799.030762,637.985596 800.243347,638.044678 801.405212,638.043030 
	C816.904175,638.020752 832.405029,638.148010 847.900940,637.926270 
	C852.461548,637.861023 854.289551,639.513977 854.167175,643.979004 
	C854.053040,648.139526 854.283447,652.308655 854.313477,656.474426 
	C854.321838,657.630432 854.342590,658.975525 852.830994,659.261414 
	C851.399292,659.532227 850.691650,658.467224 850.306580,657.324829 
	C847.481567,648.943237 840.686157,648.167603 833.318420,648.293213 
	C820.982849,648.503662 822.207458,646.725342 822.154114,659.585022 
	C822.136841,663.751221 822.155090,667.917969 822.199097,672.083923 
	C822.215271,673.617432 822.407715,674.988770 824.264160,675.616760 
	C830.138367,677.603638 838.646423,675.062195 842.160461,670.104309 
	C842.758972,669.259949 843.294067,668.370361 844.474365,668.585510 
	C845.642212,668.798462 846.061157,669.757202 846.068115,670.807495 
	C846.112305,677.471924 846.125732,684.136719 846.114502,690.801392 
	C846.112793,691.832092 845.827393,692.881897 844.674377,693.170959 
	C843.272583,693.522339 842.654907,692.506958 841.982117,691.471558 
	C838.845337,686.644653 829.144592,683.945251 823.996643,686.330872 
	C822.510925,687.019348 822.211365,688.201538 822.206726,689.579590 
	C822.182800,696.745422 822.218811,703.911682 822.164673,711.077209 
	C822.143799,713.836121 823.447815,714.982788 826.132324,714.950623 
	C831.297302,714.888733 836.465332,714.994507 841.628479,714.874634 
	C847.636719,714.735168 851.329285,711.078674 854.222351,706.275085 
	C855.038513,704.919922 855.649048,702.778259 857.775513,703.558838 
	C859.895630,704.337036 858.944702,706.332092 858.743103,707.922729 
	C858.220581,712.044739 857.684387,716.165161 857.188782,720.290405 
	C856.777466,723.714050 855.416565,725.486816 851.434814,725.437012 
	C834.605042,725.226562 817.771057,725.362000 800.938721,725.328613 
	C799.214905,725.325134 797.239868,725.804810 796.166199,724.093689 
	C796.020630,722.545959 796.807129,721.985168 797.769714,721.554260 
	C801.720581,719.785034 802.627319,716.411865 802.617432,712.498657 
	C802.594604,703.499146 802.617188,694.499512 802.621094,684.999878 
z"/>
<path fill="#000000" opacity="1.000000" stroke="none" 
	d="
M675.553833,638.009644 
	C679.459717,637.759094 680.378479,640.173828 681.360596,642.818359 
	C689.760559,665.438354 698.340637,687.992249 706.607361,710.660522 
	C708.532654,715.939819 710.956543,720.535278 716.013062,722.849976 
	C715.267212,725.635193 713.556580,725.284302 712.151062,725.292053 
	C703.324280,725.340881 694.496948,725.349609 685.670166,725.305481 
	C684.265442,725.298462 682.378479,725.817810 681.821899,723.896790 
	C681.186584,721.703796 683.440002,721.837097 684.542175,721.054443 
	C685.081421,720.671509 685.791809,720.352905 686.079224,719.819214 
	C689.129822,714.154724 684.364380,709.801697 683.442627,704.795227 
	C682.937805,702.053284 680.870789,701.283081 678.196167,701.322327 
	C671.036194,701.427673 663.872192,701.445984 656.712830,701.323975 
	C653.540222,701.269958 651.742859,702.532043 650.940857,705.597168 
	C650.352966,707.843994 649.565918,710.057251 648.663574,712.199463 
	C646.888184,716.414368 646.609192,720.007263 651.927002,721.762390 
	C652.794861,722.048828 653.311462,722.678467 653.268372,723.628357 
	C653.223145,724.624634 652.535156,725.202881 651.661865,725.200867 
	C644.522705,725.184509 637.371155,725.850525 630.252014,724.876221 
	C629.889648,724.826599 629.607727,724.189270 629.441284,723.999695 
	C642.637329,710.528687 644.146484,691.804810 651.515991,675.808472 
	C655.055054,668.126465 657.332031,659.870483 660.372253,651.947998 
	C661.944702,647.850464 663.664612,643.893799 660.583984,639.304138 
	C665.607971,636.830872 670.480164,638.510681 675.553833,638.009644 
M674.908875,680.488525 
	C672.607361,674.607483 671.195374,668.337097 667.332275,661.532776 
	C662.781677,671.952026 659.589478,681.240845 656.355408,691.851440 
	C660.727478,691.851440 664.150757,691.842590 667.573975,691.853088 
	C680.137390,691.891479 678.905151,691.857056 674.908875,680.488525 
z"/>
<path fill="#000000" opacity="1.000000" stroke="none" 
	d="
M776.831726,660.767212 
	C769.530090,681.183044 762.324463,701.220032 755.282898,721.314453 
	C754.223877,724.336670 752.633484,725.483459 749.459229,725.374390 
	C739.612244,725.036072 740.772461,726.972229 737.130554,717.008850 
	C729.020996,694.822754 720.761475,672.691528 712.552368,650.541870 
	C711.257141,647.047241 709.658020,643.791077 705.881653,642.261597 
	C704.751404,641.803833 703.763611,641.013428 704.179321,639.613708 
	C704.582520,638.256042 705.904480,638.117065 707.054443,638.110352 
	C716.542664,638.054810 726.031250,638.040039 735.519714,638.048584 
	C736.696838,638.049622 738.029602,638.246399 738.423157,639.539734 
	C738.946716,641.260742 737.537415,641.819885 736.279175,642.334106 
	C733.152283,643.612122 732.621338,646.266418 733.426636,648.967468 
	C738.371704,665.554199 744.503662,681.735718 750.453247,697.977844 
	C750.678223,698.591980 751.008667,699.167542 751.186829,699.543640 
	C753.880310,698.302551 754.073120,696.319031 754.650391,694.675537 
	C759.666931,680.393494 764.583374,666.076355 769.605347,651.796387 
	C771.066650,647.641235 771.754333,643.928894 766.397400,642.068787 
	C765.382385,641.716309 764.761597,640.862610 765.069641,639.711670 
	C765.378052,638.559265 766.434509,638.244080 767.418945,638.230896 
	C773.741333,638.145813 780.064636,638.115540 786.387695,638.120300 
	C787.404785,638.121094 788.403320,638.502380 788.789368,639.575256 
	C789.106262,640.455872 788.751770,641.362366 787.945435,641.697937 
	C780.622253,644.745300 780.545166,652.198792 777.900940,658.086243 
	C777.560364,658.844604 777.286072,659.632690 776.831726,660.767212 
z"/>
<path fill="#000000" opacity="1.000000" stroke="none" 
	d="
M386.855133,204.788757 
	C386.894165,197.197540 387.807983,196.598221 394.169891,199.533066 
	C404.865051,204.466934 410.050873,212.908859 409.340607,224.116455 
	C409.188232,226.520721 408.920654,228.546600 405.633698,227.785782 
	C403.699158,227.338013 401.517151,226.718384 400.671631,229.465256 
	C399.893616,231.993103 400.844696,233.840408 402.888062,235.535965 
	C412.857086,243.808075 418.144806,254.599899 419.779755,267.351593 
	C420.489655,272.888397 419.282806,278.301453 418.983307,283.766846 
	C418.790894,287.278137 416.735779,288.379364 413.051697,287.457001 
	C392.684875,282.357880 378.527954,264.901093 377.730835,243.607849 
	C377.512329,237.770966 377.941223,231.982605 378.677856,226.193390 
	C379.025055,223.464645 380.202942,222.650452 382.673889,223.745956 
	C385.715881,225.094666 388.746155,226.471390 391.756744,227.888596 
	C393.382843,228.654083 394.529724,228.307739 395.597656,226.837692 
	C396.770294,225.223419 396.228180,224.088608 394.956177,222.973618 
	C389.596252,218.275238 387.715057,211.991058 386.855133,204.788757 
z"/>
<path fill="#000000" opacity="1.000000" stroke="none" 
	d="
M520.853760,329.000488 
	C514.410156,330.169098 514.618530,330.153839 514.519348,324.384399 
	C514.078552,298.760681 529.559448,280.027405 557.724670,274.814484 
	C560.565002,274.288757 562.094360,274.635162 561.796265,278.237854 
	C559.556641,305.303253 547.114075,320.929657 520.853760,329.000488 
z"/>
<path fill="#000000" opacity="1.000000" stroke="none" 
	d="
M424.952393,200.672043 
	C422.842743,192.267899 425.055908,184.930847 427.914795,177.608551 
	C439.172668,181.282242 447.921265,196.973724 445.793182,208.936096 
	C445.066467,213.021194 444.640289,217.194748 439.885925,219.088898 
	C437.271576,220.130432 438.757629,222.210144 439.491669,223.748993 
	C442.159973,229.342987 442.631683,235.235352 442.213348,241.294998 
	C441.967285,244.859421 440.438232,245.852554 436.922577,244.692184 
	C420.450470,239.255447 410.420959,221.277634 414.482727,203.896515 
	C418.665985,203.208389 421.457428,207.569580 425.852509,207.117767 
	C426.604980,205.020386 425.467468,203.072052 424.952393,200.672043 
z"/>
<path fill="#000000" opacity="1.000000" stroke="none" 
	d="
M780.614990,780.836792 
	C780.619324,774.597046 780.753723,768.777588 780.574158,762.967773 
	C780.480103,759.925598 781.589661,758.750671 784.600830,758.811523 
	C787.483582,758.869690 789.373718,759.462341 789.346985,762.958679 
	C789.251587,775.442017 789.370483,787.927063 789.271362,800.410339 
	C789.254700,802.505371 790.380615,805.517944 786.991638,806.154724 
	C784.049316,806.707581 781.066711,806.841553 778.908325,803.840454 
	C773.661377,796.545288 768.293030,789.337280 762.945618,782.114807 
	C761.889221,780.688049 761.123718,778.874817 758.940796,778.620178 
	C756.636780,779.554260 757.285950,781.641907 757.262939,783.332153 
	C757.179138,789.489868 757.131287,795.651489 757.264709,801.807434 
	C757.340637,805.311707 755.781433,806.393188 752.435974,806.413452 
	C748.741211,806.435791 747.935486,804.536011 747.949524,801.413330 
	C748.004883,789.095886 747.959106,776.777954 748.017822,764.460571 
	C748.027771,762.368103 747.647644,759.770813 750.509827,759.146484 
	C753.503235,758.493408 756.424255,758.514038 758.575195,761.464233 
	C763.770325,768.590088 769.064209,775.644226 774.353455,782.700928 
	C775.719543,784.523560 776.696350,786.735596 779.258972,787.879028 
	C780.661987,785.822815 780.588257,783.529419 780.614990,780.836792 
z"/>
<path fill="#000000" opacity="1.000000" stroke="none" 
	d="
M352.845764,779.776184 
	C352.833221,773.979797 352.904358,768.650757 352.780579,763.326233 
	C352.705963,760.116455 354.087982,758.842346 357.255432,758.868958 
	C360.277649,758.894409 362.005615,759.936829 362.002167,763.181030 
	C361.988342,776.165466 362.024261,789.149902 361.993744,802.134216 
	C361.989899,803.770996 362.035431,805.804199 359.869354,806.100037 
	C356.959961,806.497375 353.943115,807.095825 351.722107,804.030884 
	C346.448059,796.752930 341.047150,789.566650 335.662109,782.369690 
	C334.397217,780.679260 333.458649,778.628723 331.206451,777.814453 
	C329.050934,779.115784 329.445526,781.264954 329.431854,783.173096 
	C329.386597,789.494629 329.295166,795.822693 329.532776,802.136597 
	C329.662079,805.572021 328.163116,806.394653 325.084503,806.411316 
	C321.910492,806.428528 320.614868,805.307007 320.642853,802.045166 
	C320.746979,789.893372 320.610138,777.739502 320.724426,765.587952 
	C320.745636,763.331543 319.389801,760.143982 322.840851,759.197876 
	C326.257202,758.261292 329.244507,759.009094 331.550476,762.278931 
	C336.441040,769.213745 341.598297,775.961487 346.697662,782.747375 
	C347.958649,784.425354 348.890045,786.523865 351.521637,787.146851 
	C353.631653,785.184021 352.517731,782.547668 352.845764,779.776184 
z"/>
<path fill="#000000" opacity="1.000000" stroke="none" 
	d="
M395.252747,806.238342 
	C392.378448,805.430481 392.752380,803.373779 392.747894,801.620239 
	C392.715546,788.974487 392.813354,776.328003 392.705048,763.683167 
	C392.675964,760.290833 393.925842,758.780579 397.347412,758.865051 
	C402.336365,758.988159 407.341400,758.735107 412.318451,759.016357 
	C425.862335,759.781677 435.357941,770.085144 434.914154,783.294861 
	C434.454834,796.967712 424.987793,806.200195 411.199646,806.349243 
	C406.042694,806.404968 400.884277,806.321472 395.252747,806.238342 
M418.668762,769.653076 
	C414.713562,767.525696 410.434998,767.253052 406.054840,767.290894 
	C403.387482,767.313965 401.977081,768.308533 401.991150,771.080444 
	C402.030121,778.745361 402.022705,786.410645 402.070648,794.075500 
	C402.081604,795.828186 402.484558,797.218506 404.608795,797.772095 
	C411.797363,799.645325 420.475861,796.490112 423.485657,790.734741 
	C427.342590,783.359497 425.804871,775.796753 418.668762,769.653076 
z"/>
<path fill="#000000" opacity="1.000000" stroke="none" 
	d="
M823.367676,783.776306 
	C825.942322,795.798279 834.184204,801.295471 843.739563,797.916199 
	C846.700806,796.868958 848.078918,795.184937 847.756165,791.989502 
	C847.397766,788.440735 844.731934,789.132080 842.523315,788.904419 
	C839.524475,788.595276 835.836304,789.502136 836.297974,784.223755 
	C836.557922,781.251343 837.760071,780.004822 840.586304,780.023315 
	C844.747131,780.050537 848.907959,780.067871 853.068726,780.101624 
	C855.956421,780.125061 857.266235,781.547485 857.172241,784.476685 
	C857.065552,787.802551 856.788940,791.183838 857.233643,794.453003 
	C858.022522,800.253052 854.890442,802.919617 850.167480,804.916443 
	C837.723328,810.177551 824.517151,806.832825 817.780762,796.565125 
	C811.434143,786.891418 813.007202,772.829285 821.326233,764.869629 
	C829.656555,756.899170 843.925964,755.999634 853.092957,762.899597 
	C854.663391,764.081665 856.864502,765.371399 854.864075,767.634155 
	C853.166931,769.553833 851.854797,772.605530 848.019592,770.406372 
	C834.868408,762.864868 824.614380,768.333191 823.367676,783.776306 
z"/>
<path fill="#000000" opacity="1.000000" stroke="none" 
	d="
M608.840698,796.252686 
	C606.703552,796.245239 605.014526,796.414429 603.376404,796.198364 
	C598.383118,795.539734 595.124695,797.081787 593.798523,802.367310 
	C592.367798,808.069519 587.873962,806.185120 584.216187,806.039429 
	C582.932373,804.006531 584.170105,802.576111 584.758911,801.114807 
	C589.736816,788.761658 594.819092,776.450195 599.725403,764.068909 
	C601.003174,760.844482 602.485901,758.749207 606.490906,758.786682 
	C610.378845,758.823059 612.038696,760.613525 613.345520,763.948547 
	C618.142395,776.189880 623.181396,788.336182 628.100159,800.530029 
	C628.711243,802.044861 629.618652,803.508423 629.439331,805.228149 
	C623.043152,807.688416 620.501282,807.010010 618.714417,801.270630 
	C617.092468,796.061279 613.456360,796.010986 608.840698,796.252686 
M610.532043,780.061890 
	C609.294006,777.999512 609.263367,775.207458 606.375061,773.502136 
	C603.201843,776.664490 602.058533,780.714539 601.255859,784.877930 
	C601.010986,786.148376 601.930908,787.216187 603.165833,787.436523 
	C605.765381,787.900391 608.642029,788.611938 610.838501,786.778625 
	C612.871948,785.081360 611.483154,782.796082 610.532043,780.061890 
z"/>
<path fill="#000000" opacity="1.000000" stroke="none" 
	d="
M287.679443,786.444946 
	C289.894836,793.072021 293.358765,798.858276 294.645813,805.419556 
	C287.497437,807.510376 286.050964,807.051025 283.843567,800.838684 
	C282.552460,797.205139 280.456238,795.870300 276.773041,796.214478 
	C274.460358,796.430542 272.073486,796.532715 269.786530,796.211609 
	C263.875641,795.381470 260.097595,797.062927 258.350189,803.356506 
	C256.889008,808.619141 252.347290,805.523010 248.836716,806.320374 
	C248.533371,801.846191 250.727158,798.731628 252.000977,795.460938 
	C256.230408,784.601318 260.881775,773.906555 265.166565,763.067688 
	C266.407776,759.927917 268.286163,758.760803 271.577179,758.807861 
	C274.772949,758.853638 276.814972,759.767395 278.050079,762.984680 
	C281.033081,770.754883 284.339081,778.401062 287.679443,786.444946 
M276.952881,784.250061 
	C275.556427,780.117676 274.578857,775.789307 271.482971,771.990784 
	C269.048615,775.498413 268.174530,779.237427 266.748138,782.704834 
	C266.049591,784.402771 264.850006,786.518188 267.866119,787.567322 
	C271.509888,788.834778 276.235657,787.550720 276.952881,784.250061 
z"/>
<path fill="#000000" opacity="1.000000" stroke="none" 
	d="
M493.423096,765.629639 
	C491.414429,769.840698 489.219299,771.432861 484.828369,768.512329 
	C481.878174,766.549988 478.076843,765.650940 474.322876,767.246643 
	C472.188202,768.153992 470.534332,769.516174 470.473969,771.969360 
	C470.415405,774.349609 472.225128,775.525574 474.141693,776.195801 
	C477.907410,777.512573 481.799591,778.469910 485.557312,779.806824 
	C492.967346,782.442932 495.704987,786.563904 495.322327,794.110718 
	C495.009674,800.277527 491.101440,804.699524 484.173340,806.441895 
	C476.313538,808.418579 469.015167,807.090881 462.336670,802.419495 
	C459.808136,800.650940 459.252319,798.838684 461.378571,796.247864 
	C463.231171,793.990479 464.686188,792.838928 467.396912,795.301514 
	C470.921753,798.503845 475.367432,799.292480 480.020752,798.695801 
	C482.810181,798.338135 485.328888,797.333374 485.793610,794.132629 
	C486.262634,790.902039 484.201050,789.202209 481.471039,788.282654 
	C477.849335,787.062622 474.098450,786.203918 470.527893,784.858704 
	C463.367035,782.160828 459.923431,776.826965 460.888947,770.397339 
	C461.844421,764.034729 467.372772,759.279419 474.584167,758.702759 
	C479.794861,758.286011 484.932037,758.537964 489.612335,761.223633 
	C491.277435,762.179138 493.422455,762.791687 493.423096,765.629639 
z"/>
<path fill="#000000" opacity="1.000000" stroke="none" 
	d="
M652.857117,783.999939 
	C652.860779,776.853149 652.956726,770.204590 652.832153,763.560181 
	C652.767578,760.117981 654.233826,758.766846 657.603516,758.861084 
	C662.751160,759.005005 667.919067,758.707642 673.052185,759.023438 
	C683.090454,759.641052 688.548828,765.717041 688.312317,775.592957 
	C688.103577,784.315369 681.802185,790.018250 672.132690,790.235779 
	C662.334045,790.456299 662.301270,790.456116 662.253479,800.517273 
	C662.238525,803.663696 662.437988,806.385559 657.806580,806.456848 
	C653.091187,806.529541 652.776123,803.987488 652.849670,800.451721 
	C652.960144,795.136658 652.865479,789.817383 652.857117,783.999939 
M668.497681,781.786560 
	C668.828979,781.785889 669.160339,781.782715 669.491638,781.784912 
	C673.484802,781.811340 677.327454,781.363525 678.648376,776.757141 
	C679.455078,773.944031 679.276245,771.137268 676.631165,769.110413 
	C674.445435,767.435425 665.623596,766.577087 663.655823,767.811340 
	C662.508972,768.530762 662.330750,769.646118 662.301086,770.822449 
	C662.255127,772.643616 662.392273,774.478271 662.222107,776.285522 
	C661.840576,780.337402 663.510742,782.227112 668.497681,781.786560 
z"/>
<path fill="#000000" opacity="1.000000" stroke="none" 
	d="
M530.056885,778.203491 
	C528.444824,785.499939 529.718079,791.754944 535.640259,795.961548 
	C541.790710,800.330383 548.309265,799.604858 554.163818,795.048889 
	C557.687500,792.307007 559.374878,795.115540 561.158020,797.015503 
	C563.517944,799.530090 560.822144,800.882874 559.315247,802.158142 
	C551.593689,808.692993 538.418945,809.059875 529.890808,803.092285 
	C521.135559,796.965881 517.714966,785.065857 521.548584,774.070984 
	C525.075623,763.955444 534.480286,757.734802 545.104370,758.320129 
	C550.610107,758.623352 555.545471,760.286499 559.825623,763.766357 
	C561.424561,765.066406 563.148621,766.568481 560.925659,768.632568 
	C559.171570,770.261169 557.811829,773.633362 554.493591,770.841064 
	C551.147888,768.025513 547.322205,766.667786 542.951538,767.027283 
	C536.144958,767.587097 532.023193,771.376282 530.056885,778.203491 
z"/>
<path fill="#000000" opacity="1.000000" stroke="none" 
	d="
M397.612915,299.056152 
	C412.295807,301.410248 422.432861,309.430481 423.353424,319.101349 
	C403.444885,330.240601 384.888336,321.482941 375.821869,304.081268 
	C382.490814,300.392914 389.555389,298.637451 397.612915,299.056152 
z"/>
<path fill="#000000" opacity="1.000000" stroke="none" 
	d="
M501.766479,299.589233 
	C503.446503,298.792786 504.710999,297.911469 506.302155,298.118256 
	C511.285553,307.338715 509.145203,321.494720 502.903748,329.552368 
	C499.299957,334.204834 495.014557,338.097229 489.719604,340.791321 
	C484.751404,343.319275 483.267059,342.625885 482.218781,337.248108 
	C479.174194,321.629120 485.619843,309.050049 501.766479,299.589233 
z"/>
<path fill="#000000" opacity="1.000000" stroke="none" 
	d="
M446.269684,268.046051 
	C449.020844,276.381561 448.115173,284.079224 445.164734,291.800140 
	C443.703613,295.623810 441.909363,295.634125 438.822418,293.757965 
	C426.822815,286.464996 421.841095,274.266174 425.117188,259.299683 
	C425.917480,255.643738 426.472809,251.822647 429.129303,248.084702 
	C436.889374,253.037445 442.754272,259.230164 446.269684,268.046051 
z"/>
<path fill="#000000" opacity="1.000000" stroke="none" 
	d="
M507.877258,226.793121 
	C503.676178,231.687744 498.802338,235.008362 493.311646,237.625961 
	C489.685394,239.354736 488.545105,237.840454 487.932190,234.595367 
	C484.885651,218.465454 495.644287,200.201477 511.014771,195.330078 
	C513.896423,194.416794 515.041626,195.401077 515.253967,198.219711 
	C516.025330,208.455338 514.582458,218.117676 507.877258,226.793121 
z"/>
<path fill="#000000" opacity="1.000000" stroke="none" 
	d="
M567.441528,372.563354 
	C552.256775,372.738373 541.818359,366.343781 536.256958,352.494019 
	C535.584839,350.820312 534.852417,349.122040 535.110474,347.256958 
	C546.160889,341.328369 562.797485,347.089264 569.805542,359.320404 
	C571.120483,361.615387 572.177368,364.091125 573.081421,366.582123 
	C575.279419,372.637756 574.538940,373.443176 567.441528,372.563354 
z"/>
<path fill="#000000" opacity="1.000000" stroke="none" 
	d="
M581.427490,323.499451 
	C596.219971,310.069214 618.380493,317.927155 624.895874,331.165314 
	C613.041687,342.623230 591.407227,341.005585 581.266785,327.932312 
	C580.148865,326.491058 579.235657,325.188141 581.427490,323.499451 
z"/>
<path fill="#000000" opacity="1.000000" stroke="none" 
	d="
M328.831360,340.763000 
	C319.051239,340.570892 311.657471,336.024689 304.866760,330.097504 
	C303.020020,328.485596 302.292511,327.014008 304.728363,325.369781 
	C318.877411,315.819061 334.504333,315.943237 344.739594,329.295593 
	C347.422241,332.795227 346.636536,334.878082 343.044556,336.714600 
	C338.691193,338.940369 334.094452,340.249481 328.831360,340.763000 
z"/>
<path fill="#000000" opacity="1.000000" stroke="none" 
	d="
M836.909119,871.324768 
	C825.345093,871.106567 823.309570,867.698120 828.448303,857.923401 
	C830.518860,853.984863 833.516113,850.876526 837.400757,848.806763 
	C844.521545,845.012817 852.458801,844.240173 860.263245,842.486572 
	C860.324097,858.154785 851.374023,871.161987 836.909119,871.324768 
z"/>
<path fill="#000000" opacity="1.000000" stroke="none" 
	d="
M159.715271,778.892883 
	C163.314484,778.785339 165.222763,779.765686 165.154205,783.426514 
	C165.078888,787.449097 162.495529,787.341370 159.704269,787.339172 
	C136.252777,787.320679 112.801224,787.302795 89.349831,787.352112 
	C86.348518,787.358398 84.315598,787.121765 84.369789,783.144348 
	C84.422462,779.278137 86.347939,778.837891 89.392982,778.844666 
	C112.678062,778.896667 135.963287,778.881531 159.715271,778.892883 
z"/>
<path fill="#000000" opacity="1.000000" stroke="none" 
	d="
M224.644470,871.177124 
	C208.877121,871.503235 197.688019,859.651367 198.205582,843.684998 
	C209.229828,841.081665 226.354156,849.235962 230.920105,859.263062 
	C234.673935,867.506592 233.916977,869.045349 224.644470,871.177124 
z"/>
<path fill="#000000" opacity="1.000000" stroke="none" 
	d="
M595.305420,362.963501 
	C582.188904,362.271423 573.158691,356.433167 568.463745,344.403564 
	C566.624939,339.692078 567.668579,338.002930 572.995789,337.132019 
	C583.926697,335.345001 595.284424,341.168182 600.896423,351.442505 
	C601.294495,352.171356 601.684143,352.907013 602.033020,353.660217 
	C606.133423,362.513184 605.595703,363.310242 595.305420,362.963501 
z"/>
<path fill="#000000" opacity="1.000000" stroke="none" 
	d="
M194.391495,775.995972 
	C194.289078,771.904907 194.214218,768.249634 194.081253,764.596436 
	C193.957336,761.191772 194.637268,758.805481 198.933670,758.869568 
	C203.056488,758.930969 203.353577,761.283264 203.325211,764.433838 
	C203.242905,773.577942 203.550827,782.733704 203.183807,791.863953 
	C202.983826,796.838867 204.850555,798.344116 209.511520,797.971863 
	C213.311691,797.668335 217.156219,797.964905 220.978622,797.882019 
	C224.207169,797.812012 225.334717,799.344299 225.312683,802.473022 
	C225.290222,805.658264 223.669205,806.386902 220.909927,806.359558 
	C213.428574,806.285522 205.944138,806.237915 198.464752,806.380981 
	C195.140747,806.444580 194.036209,804.897095 194.084198,801.862610 
	C194.218246,793.386414 194.294586,784.909363 194.391495,775.995972 
z"/>
<path fill="#000000" opacity="1.000000" stroke="none" 
	d="
M916.999878,787.363037 
	C906.843323,787.357056 897.186096,787.282837 887.530579,787.382568 
	C884.326965,787.415649 882.577026,786.627258 882.629456,782.937561 
	C882.679810,779.391174 884.565796,778.846619 887.419861,778.848694 
	C908.730835,778.864258 930.041809,778.845032 951.352783,778.803650 
	C954.140381,778.798218 956.234619,779.204651 956.272888,782.785706 
	C956.310303,786.275330 954.833435,787.442749 951.463867,787.407654 
	C940.143616,787.289734 928.821411,787.362732 916.999878,787.363037 
z"/>
<path fill="#000000" opacity="1.000000" stroke="none" 
	d="
M354.869263,357.805725 
	C347.720184,366.749542 332.346863,368.438171 321.279633,362.394348 
	C325.321198,349.212921 340.906555,340.704437 353.790558,344.645721 
	C360.188751,346.602966 360.929535,348.566833 357.374176,354.255920 
	C356.671082,355.380951 355.864655,356.441437 354.869263,357.805725 
z"/>
<path fill="#000000" opacity="1.000000" stroke="none" 
	d="
M590.008362,268.010834 
	C590.133301,257.824951 600.647156,248.459061 612.779114,247.893173 
	C616.740417,247.708389 621.973511,247.158524 623.815552,250.541519 
	C625.642944,253.897598 621.495483,257.377075 619.240234,260.262695 
	C613.679993,267.377228 606.127930,270.056702 597.213806,268.957123 
	C595.078003,268.693665 592.955017,268.325317 590.406494,268.000549 
	C589.986755,267.995941 590.008362,268.010834 590.008362,268.010834 
z"/>
<path fill="#000000" opacity="1.000000" stroke="none" 
	d="
M490.927643,197.957947 
	C488.653473,200.480316 489.154053,203.909592 486.392212,206.455109 
	C487.571808,199.392426 481.692383,195.557770 479.839539,189.935242 
	C476.798431,180.706970 480.425568,168.695633 487.954132,163.074829 
	C497.428253,170.069153 498.885559,185.873337 490.927643,197.957947 
z"/>
<path fill="#000000" opacity="1.000000" stroke="none" 
	d="
M522.175598,225.238770 
	C518.944885,226.020218 518.044128,224.700607 517.781311,221.970459 
	C516.473572,208.387589 525.482849,196.726318 539.323120,194.304443 
	C545.039795,204.680618 536.604614,220.187592 522.175598,225.238770 
z"/>
<path fill="#000000" opacity="1.000000" stroke="none" 
	d="
M507.947906,282.207977 
	C512.815002,270.906311 520.865051,265.374390 531.347412,265.567383 
	C535.236694,265.639038 536.192017,266.930298 535.074646,270.751831 
	C530.741577,285.571838 523.083862,290.946899 506.588104,290.236694 
	C506.000824,287.530884 507.135040,285.083923 507.947906,282.207977 
z"/>
<path fill="#000000" opacity="1.000000" stroke="none" 
	d="
M721.312622,787.999023 
	C721.307617,792.995239 721.204407,797.494446 721.328430,801.987427 
	C721.417053,805.199707 720.079895,806.400452 716.877625,806.400452 
	C713.622559,806.400452 711.879700,805.458191 711.910706,801.888794 
	C712.022156,789.066162 712.035767,776.242432 712.022461,763.419128 
	C712.018799,759.900879 713.860535,758.872742 717.078125,758.864075 
	C720.411377,758.855103 721.367249,760.460632 721.329407,763.517822 
	C721.230652,771.510498 721.305847,779.505371 721.312622,787.999023 
z"/>
<path fill="#000000" opacity="1.000000" stroke="none" 
	d="
M366.426758,236.645599 
	C370.628754,241.503143 371.799225,246.890137 371.170258,252.760483 
	C370.864441,255.615067 369.882782,257.418152 366.322479,256.526459 
	C356.533752,254.074753 348.327728,241.255936 350.241058,231.321991 
	C350.779938,228.524124 352.345215,228.125595 354.533539,228.932938 
	C358.941071,230.558975 363.029358,232.751495 366.426758,236.645599 
z"/>
<path fill="#000000" opacity="1.000000" stroke="none" 
	d="
M556.143433,218.398346 
	C550.358704,221.614288 544.727051,221.169296 539.001099,219.633514 
	C540.667480,207.584351 551.836060,199.213028 563.732300,200.768250 
	C566.479553,201.127396 567.098877,202.319534 566.244995,204.794373 
	C564.353394,210.276642 561.451172,214.992203 556.143433,218.398346 
z"/>
<path fill="#000000" opacity="1.000000" stroke="none" 
	d="
M602.654480,848.485535 
	C605.466919,845.162720 607.778381,845.531860 609.621399,849.068604 
	C610.986694,851.688660 612.313354,854.328857 613.876099,857.388611 
	C616.609863,855.032898 617.509033,852.173401 618.653015,849.541138 
	C619.795471,846.912354 621.730652,846.170410 624.276123,846.705688 
	C626.901855,847.257935 626.140381,849.515747 626.173096,851.195984 
	C626.263611,855.849915 626.225037,860.507263 626.173706,865.162598 
	C626.153198,867.023865 626.079285,869.127380 623.470581,869.047668 
	C620.903137,868.969299 620.935974,866.860962 620.903442,865.007385 
	C620.863220,862.717957 620.893799,860.427185 620.893799,856.746826 
	C619.374512,859.686829 618.498230,861.403992 617.601807,863.110596 
	C616.837463,864.565674 616.294067,866.500366 614.396423,866.592834 
	C612.436340,866.688293 611.827087,864.749695 611.044739,863.313293 
	C610.173096,861.713135 609.379883,860.070312 608.065979,857.490967 
	C607.765686,860.915100 607.527527,863.388733 607.339111,865.866089 
	C607.219543,867.437561 607.040161,869.000000 604.982727,868.987976 
	C602.918518,868.975891 602.683716,867.379395 602.669250,865.826782 
	C602.616577,860.173889 602.619934,854.520569 602.654480,848.485535 
z"/>
<path fill="#000000" opacity="1.000000" stroke="none" 
	d="
M452.107635,869.282837 
	C448.312958,869.566833 446.738159,868.155579 446.836029,864.700562 
	C446.967316,860.066101 446.948334,855.424377 446.865479,850.788025 
	C446.814575,847.939026 447.921295,846.377991 450.893585,846.454285 
	C453.700134,846.526306 456.509430,846.558105 459.311249,846.717834 
	C460.865540,846.806519 462.131958,847.620239 463.102478,848.838928 
	C464.360779,850.419128 465.429626,864.231140 464.342621,865.858643 
	C461.395264,870.271423 456.752960,869.015991 452.107635,869.282837 
M459.606323,861.722351 
	C457.945526,858.599854 455.417999,858.821472 452.996246,860.397278 
	C451.876068,861.126221 451.786713,863.237671 452.994873,863.850647 
	C455.343628,865.042358 458.044525,865.794006 459.606323,861.722351 
M459.076721,852.568848 
	C458.583771,851.569275 457.686615,851.183594 456.664978,851.116272 
	C455.212891,851.020569 453.626373,850.668518 452.677979,852.257812 
	C452.212585,853.037659 452.355743,853.926819 452.972626,854.537537 
	C454.156586,855.709778 455.609558,855.740845 457.106445,855.187988 
	C458.070007,854.832092 458.862427,854.288696 459.076721,852.568848 
z"/>
<path fill="#000000" opacity="1.000000" stroke="none" 
	d="
M499.915039,182.120514 
	C504.117615,176.213272 509.673340,173.587845 516.298950,172.782379 
	C519.510437,184.298447 510.134766,195.523102 497.638916,195.570663 
	C495.752289,190.803192 497.662964,186.613617 499.915039,182.120514 
z"/>
<path fill="#000000" opacity="1.000000" stroke="none" 
	d="
M697.211731,855.070984 
	C697.200806,858.877808 697.219238,862.199890 697.163330,865.520691 
	C697.137939,867.026123 697.064392,868.611267 695.163391,869.065674 
	C693.510742,869.460632 692.300903,868.729431 691.271240,867.472107 
	C688.560852,864.162415 686.623840,860.227051 682.952759,856.984497 
	C681.798767,860.040222 682.446594,862.841003 682.226868,865.533569 
	C682.087769,867.239014 682.040588,869.054260 679.693970,869.046509 
	C677.518188,869.039307 677.595703,867.339233 677.592834,865.824036 
	C677.581238,859.702148 677.588013,853.580261 677.588013,846.893433 
	C686.244873,846.308655 686.053162,855.532898 692.007202,858.507812 
	C692.007202,855.674988 691.945679,853.110535 692.029480,850.550781 
	C692.083191,848.907532 692.062439,846.996338 694.396606,846.859863 
	C697.079285,846.703064 697.119751,848.725403 697.188782,850.600098 
	C697.237671,851.927063 697.206360,853.257080 697.211731,855.070984 
z"/>
<path fill="#000000" opacity="1.000000" stroke="none" 
	d="
M432.930908,337.135559 
	C436.060638,340.855957 437.432800,344.826080 437.419342,349.271667 
	C426.072906,353.605713 416.139709,343.007874 414.980682,333.091156 
	C414.695618,330.651886 416.784729,330.649506 418.442719,330.676788 
	C424.028473,330.768860 428.734558,332.964996 432.930908,337.135559 
z"/>
<path fill="#000000" opacity="1.000000" stroke="none" 
	d="
M776.612183,847.192993 
	C779.534424,850.814514 782.168213,854.205688 785.219910,858.134949 
	C786.582642,854.940552 786.590881,852.207825 786.645569,849.485413 
	C786.674194,848.060181 786.918335,846.774780 788.705933,846.665466 
	C790.720886,846.542175 791.269531,847.803040 791.272339,849.511536 
	C791.281006,854.829285 791.305298,860.147156 791.269043,865.464600 
	C791.258972,866.934265 791.369141,868.594849 789.390808,869.043213 
	C787.698181,869.426819 786.517456,868.536682 785.557007,867.288147 
	C782.931763,863.875366 780.325867,860.447754 776.887390,855.946045 
	C776.660156,860.073853 776.504272,863.064819 776.327332,866.054565 
	C776.231628,867.670593 775.834167,869.120483 773.787842,868.982544 
	C772.044495,868.864929 771.717102,867.490112 771.706299,866.112488 
	C771.661926,860.462952 771.572571,854.809875 771.725098,849.164246 
	C771.814758,845.841675 774.007751,846.074463 776.612183,847.192993 
z"/>
<path fill="#000000" opacity="1.000000" stroke="none" 
	d="
M361.125610,851.910645 
	C357.563995,854.778931 357.395569,858.118469 359.071045,861.550537 
	C360.381012,864.233887 362.901215,865.066589 365.818268,864.710510 
	C367.253204,864.535339 368.367371,864.051025 368.401764,862.520325 
	C368.251648,862.179932 368.218567,861.999634 368.114075,861.883850 
	C366.721588,860.341553 362.441315,861.555725 363.503937,858.013062 
	C364.397339,855.034241 367.724030,856.207275 370.077759,856.097473 
	C373.051605,855.958740 374.145325,857.672363 374.128754,860.498962 
	C374.110931,863.539307 374.385315,866.604736 370.834656,868.085327 
	C366.272400,869.987671 361.746704,870.208618 357.520844,867.354309 
	C352.516327,863.974121 351.325684,856.836304 354.656525,851.302795 
	C357.701202,846.244629 364.721558,844.390503 369.982910,847.343750 
	C371.351410,848.111877 373.373383,848.831604 372.406372,851.000427 
	C371.553223,852.914001 369.900330,852.832764 368.184357,851.937866 
	C365.997223,850.797241 363.735626,850.696411 361.125610,851.910645 
z"/>
<path fill="#000000" opacity="1.000000" stroke="none" 
	d="
M387.400879,860.266602 
	C387.324341,862.792419 387.337006,864.957825 387.186676,867.111816 
	C387.091919,868.469421 386.191101,869.149841 384.816742,869.114929 
	C383.393372,869.078735 382.682861,868.261597 382.654724,866.907166 
	C382.533752,861.091614 382.419189,855.275574 382.375885,849.459106 
	C382.365509,848.068848 382.815704,846.834717 384.490326,846.528503 
	C386.131073,846.228455 387.436493,846.699463 388.427795,848.037048 
	C390.867767,851.329529 393.305786,854.623474 396.091766,858.385620 
	C397.880341,855.196960 397.497040,852.383423 397.557648,849.650940 
	C397.587891,848.288391 397.548187,846.877380 399.460114,846.773621 
	C401.419464,846.667175 402.135742,847.844116 402.149597,849.564026 
	C402.193817,855.051331 402.209808,860.539001 402.189240,866.026367 
	C402.184052,867.406250 401.878204,868.708130 400.215424,869.060242 
	C398.734650,869.373840 397.571808,868.750916 396.723114,867.640015 
	C393.900330,863.945068 391.137390,860.204468 388.202118,856.281799 
	C386.945862,857.377563 387.771149,858.791260 387.400879,860.266602 
z"/>
<path fill="#000000" opacity="1.000000" stroke="none" 
	d="
M538.733032,863.841187 
	C538.736328,859.027771 538.711487,854.696960 538.762634,850.367126 
	C538.779907,848.903564 538.705688,847.441162 540.587402,846.705017 
	C543.912842,845.404114 553.356445,846.825073 555.799866,849.400452 
	C559.344604,853.136841 560.201538,857.540527 558.204468,862.324402 
	C555.971130,867.674194 551.580688,869.473267 546.115906,869.291382 
	C542.633362,869.175476 538.182617,870.453796 538.733032,863.841187 
M553.438171,860.628357 
	C553.559570,859.325256 553.899536,857.998474 553.760986,856.723633 
	C553.359314,853.027405 551.106812,851.199768 547.444946,851.183472 
	C543.202881,851.164673 544.181702,854.434509 544.017334,856.890076 
	C543.918823,858.361938 544.076965,859.849304 544.071655,861.329468 
	C544.060913,864.326660 545.898132,864.903870 548.348328,864.557983 
	C550.430908,864.264038 551.932434,863.019958 553.438171,860.628357 
z"/>
<path fill="#000000" opacity="1.000000" stroke="none" 
	d="
M262.760071,851.169556 
	C262.550049,847.699341 263.999390,846.576843 266.919312,846.574158 
	C272.945282,846.568665 279.126740,845.911255 282.172424,852.995850 
	C285.366333,860.425232 280.873260,868.303589 272.823578,869.190063 
	C271.345673,869.352905 269.823212,869.123535 268.348511,869.301025 
	C263.953583,869.830078 262.354858,867.927856 262.667084,863.597595 
	C262.952942,859.633728 262.744080,855.634155 262.760071,851.169556 
M277.341217,860.593323 
	C277.438202,859.124756 277.848236,857.593628 277.570007,856.199951 
	C276.894257,852.815796 274.556183,851.168945 271.148041,851.248535 
	C267.182129,851.341125 268.210876,854.453674 268.045135,856.743530 
	C267.938202,858.220947 268.098969,859.715576 268.077362,861.201660 
	C268.028046,864.590454 270.160400,864.977051 272.733551,864.475891 
	C274.599243,864.112488 275.923553,862.819153 277.341217,860.593323 
z"/>
<path fill="#000000" opacity="1.000000" stroke="none" 
	d="
M566.587463,258.576050 
	C562.059692,266.734375 556.008362,271.701965 546.394775,270.300537 
	C541.117249,269.531189 540.316833,267.736877 543.016113,263.025299 
	C547.061035,255.964905 556.727051,252.583511 564.197693,255.591156 
	C565.458069,256.098572 566.716919,256.536621 566.587463,258.576050 
z"/>
<path fill="#000000" opacity="1.000000" stroke="none" 
	d="
M734.899780,849.025635 
	C737.005554,845.990723 739.899780,845.172058 741.403320,848.188171 
	C744.615112,854.630920 747.664368,861.243286 749.662170,868.303406 
	C744.165466,871.393738 742.789307,864.990845 738.637268,864.328064 
	C733.255554,863.469116 733.055725,871.080566 727.361084,868.381348 
	C729.077332,861.834534 732.330383,855.741760 734.899780,849.025635 
z"/>
<path fill="#000000" opacity="1.000000" stroke="none" 
	d="
M303.273987,855.584839 
	C305.176941,855.800110 306.354492,856.325256 305.947815,858.127197 
	C305.634186,859.517090 304.366302,859.583740 303.233276,859.896973 
	C300.857483,860.553833 296.404022,858.437988 296.724731,862.755310 
	C296.988983,866.313049 301.108032,864.192993 303.474335,864.700867 
	C304.929962,865.013306 306.743561,864.785645 306.837402,866.830566 
	C306.949249,869.267334 304.945892,869.232605 303.298767,869.239014 
	C288.859131,869.295105 290.984253,870.655945 290.906555,857.787354 
	C290.838104,846.451782 290.918152,846.408142 302.171265,846.610535 
	C303.919647,846.641968 306.848022,845.513489 306.838470,848.632385 
	C306.829926,851.418823 304.022888,850.774780 302.153107,850.998840 
	C301.330688,851.097351 300.486664,851.005615 299.660278,851.083679 
	C298.356262,851.206787 296.749603,851.125610 296.627533,852.934448 
	C296.503723,854.768799 298.076752,854.888062 299.391541,855.096130 
	C300.541687,855.278198 301.701813,855.397095 303.273987,855.584839 
z"/>
<path fill="#000000" opacity="1.000000" stroke="none" 
	d="
M636.842041,858.899963 
	C638.306396,855.322632 639.467834,852.020203 640.987427,848.891846 
	C642.367371,846.050903 646.102844,845.453979 647.284668,847.984497 
	C650.342346,854.531738 652.904114,861.310608 655.614624,867.877563 
	C652.894226,869.832520 651.449463,869.181030 649.958008,867.315430 
	C646.647766,863.174438 642.324585,863.306641 638.686829,867.489929 
	C637.356750,869.019653 637.356689,869.019592 633.817261,868.506409 
	C633.542053,865.047974 635.606079,862.288086 636.842041,858.899963 
M643.209778,859.463501 
	C649.664490,859.218506 644.332703,856.355103 644.659729,854.743835 
	C643.247742,855.938599 642.252441,857.225098 643.209778,859.463501 
z"/>
<path fill="#000000" opacity="1.000000" stroke="none" 
	d="
M490.884247,846.851929 
	C494.477722,851.561523 493.722015,863.230835 490.050995,866.889954 
	C486.934479,869.996460 483.071777,869.854736 479.326202,868.923584 
	C476.017670,868.101135 474.109528,865.524719 473.487854,862.134583 
	C472.733582,858.021179 472.962708,853.863586 473.039886,849.718689 
	C473.075134,847.824646 473.829773,846.510132 476.043915,846.666321 
	C478.155579,846.815308 478.228485,848.344604 478.248474,849.886230 
	C478.291595,853.206238 478.206970,856.531006 478.356262,859.845581 
	C478.482239,862.642761 479.763306,864.637878 482.876556,864.723633 
	C486.270844,864.817261 487.614624,862.775146 487.716278,859.703735 
	C487.815063,856.718079 487.741638,853.727051 487.810760,850.739929 
	C487.853149,848.908020 487.778564,846.916504 490.884247,846.851929 
z"/>
<path fill="#000000" opacity="1.000000" stroke="none" 
	d="
M589.973389,267.990875 
	C595.849304,271.284363 595.926575,272.014343 591.537537,277.067871 
	C585.614929,283.887207 578.370667,284.555878 569.944397,281.804657 
	C573.596680,273.105194 580.585754,269.480560 589.637695,268.104065 
	C590.008362,268.010834 589.986755,267.995941 589.973389,267.990875 
z"/>
<path fill="#000000" opacity="1.000000" stroke="none" 
	d="
M319.129395,846.805420 
	C322.671478,845.315491 325.684204,845.956604 328.613312,847.407654 
	C329.904602,848.047424 330.862457,848.958130 330.136993,850.557678 
	C329.474518,852.018372 328.360809,852.268616 326.843689,851.786743 
	C324.756165,851.123596 322.540619,849.588623 320.405090,852.256958 
	C321.085358,855.119873 323.674957,855.090210 325.773254,855.705322 
	C329.508240,856.800232 332.203064,858.903320 331.585968,863.122070 
	C330.969910,867.333801 328.066315,869.273987 323.849274,869.352051 
	C321.332397,869.398743 318.858917,869.329651 316.635773,867.940186 
	C315.304565,867.108154 314.022461,866.178711 315.117065,864.381409 
	C315.919495,863.063843 317.103394,862.687195 318.511902,863.569763 
	C318.652191,863.657654 318.800629,863.735474 318.952454,863.801453 
	C321.443695,864.884094 324.941193,866.171509 325.911194,863.238220 
	C326.970551,860.034607 322.827271,860.218628 320.737305,859.413696 
	C317.955933,858.342407 315.494232,857.040100 314.961487,853.868652 
	C314.426819,850.685974 316.071777,848.480103 319.129395,846.805420 
z"/>
<path fill="#000000" opacity="1.000000" stroke="none" 
	d="
M716.919800,859.963074 
	C716.885315,862.089661 716.937927,863.755371 716.778259,865.400391 
	C716.600098,867.236023 716.372070,869.287842 713.781738,869.085571 
	C711.279175,868.890015 711.173340,866.795044 711.177734,864.994263 
	C711.185059,862.017212 711.422668,859.039185 711.611450,856.064636 
	C711.790588,853.242615 711.230164,851.109802 707.746277,851.075317 
	C706.368591,851.061768 705.026733,850.559204 704.980042,848.848022 
	C704.920776,846.677246 706.668518,846.788086 708.118286,846.549988 
	C712.415100,845.844482 716.708008,846.035645 721.002869,846.560059 
	C722.073181,846.690796 722.924988,847.076172 723.069092,848.288818 
	C723.199768,849.387634 722.816284,850.581787 721.770874,850.656250 
	C715.471008,851.105164 717.076538,855.760071 716.919800,859.963074 
z"/>
<path fill="#000000" opacity="1.000000" stroke="none" 
	d="
M516.063110,850.367981 
	C516.290894,848.117493 516.790527,846.577820 519.063965,846.832703 
	C521.447083,847.099976 521.199280,849.013855 521.238770,850.613342 
	C521.312500,853.592834 521.453796,856.590698 521.217224,859.552917 
	C520.910889,863.387512 522.264160,865.069275 526.265381,864.764832 
	C528.000610,864.632874 530.851196,863.891846 530.857727,866.934631 
	C530.864136,869.901489 528.097351,869.225342 526.274841,869.244385 
	C514.421631,869.368469 516.190430,869.786682 516.008240,859.768982 
	C515.953979,856.789246 516.021484,853.807251 516.063110,850.367981 
z"/>
<path fill="#000000" opacity="1.000000" stroke="none" 
	d="
M501.772400,858.008301 
	C501.787933,854.693665 501.778046,851.867188 501.828400,849.041809 
	C501.856354,847.472900 502.660156,846.571289 504.294220,846.548157 
	C505.852203,846.526123 506.971344,847.234619 506.988129,848.828430 
	C507.051117,854.808777 507.046112,860.791199 506.951843,866.770996 
	C506.927979,868.283936 505.941284,869.194092 504.311432,869.100647 
	C502.677032,869.006836 501.952332,867.962158 501.897461,866.472717 
	C501.799652,863.816162 501.808167,861.155701 501.772400,858.008301 
z"/>
<path fill="#000000" opacity="1.000000" stroke="none" 
	d="
M762.216125,854.145813 
	C762.199768,858.278564 762.211426,861.933167 762.154846,865.586731 
	C762.127502,867.350708 761.745911,869.067017 759.520935,869.071350 
	C757.297546,869.075684 756.893982,867.367676 756.876160,865.599426 
	C756.826111,860.616760 756.800598,855.633301 756.839172,850.650635 
	C756.853088,848.865417 756.607117,846.725525 759.289124,846.569885 
	C762.330566,846.393494 762.132812,848.672852 762.198669,850.677490 
	C762.231323,851.673157 762.211914,852.670593 762.216125,854.145813 
z"/>
<path fill="#000000" opacity="1.000000" stroke="none" 
	d="
M662.818481,861.879150 
	C662.819641,857.905945 662.767212,854.413818 662.851501,850.924866 
	C662.893921,849.168762 662.571228,846.938232 665.273987,846.831238 
	C667.937317,846.725708 667.985840,848.863770 668.014343,850.682434 
	C668.090088,855.501404 668.091675,860.323303 668.005981,865.142029 
	C667.973694,866.955505 667.905945,869.101379 665.266907,869.013672 
	C662.978088,868.937683 662.933533,867.046692 662.855103,865.353088 
	C662.808960,864.357483 662.830383,863.358826 662.818481,861.879150 
z"/>
<path fill="#000000" opacity="1.000000" stroke="none" 
	d="
M341.055023,868.780762 
	C338.787903,861.940918 340.055023,855.176819 339.890350,848.471985 
	C339.855560,847.056091 341.015533,846.558105 342.294312,846.531372 
	C343.635803,846.503418 344.677368,847.184265 344.689301,848.510254 
	C344.744080,854.601868 344.738342,860.696472 344.587891,866.785950 
	C344.543701,868.572815 343.251862,869.329834 341.055023,868.780762 
z"/>
<path fill="#000000" opacity="1.000000" stroke="none" 
	d="
M568.192261,869.337402 
	C565.922119,868.874939 564.948669,867.705994 565.469604,865.752014 
	C565.855469,864.304871 567.052856,863.699280 568.519226,863.807190 
	C569.775024,863.899658 570.746643,864.545715 571.007385,865.816833 
	C571.411072,867.784302 570.494202,868.953064 568.192261,869.337402 
z"/>
<path fill="#000000" opacity="1.000000" stroke="none" 
	d="
M799.335693,866.660828 
	C800.191101,863.589294 802.039612,863.026733 804.240601,864.527039 
	C805.673767,865.503845 805.647278,867.286255 804.365417,868.394226 
	C802.228394,870.241516 800.462952,869.578430 799.335693,866.660828 
z"/>
<path fill="#000000" opacity="1.000000" stroke="none" 
	d="
M415.391663,867.597778 
	C413.437225,869.745667 411.651550,869.798279 410.373291,867.525208 
	C409.468811,865.916748 410.342651,864.475098 412.006714,864.062317 
	C414.506592,863.442200 415.804535,864.594116 415.391663,867.597778 
z"/>
</svg>