<svg version="1.1" id="Layer_1" xmlns="http://www.w3.org/2000/svg" xmlns:xlink="http://www.w3.org/1999/xlink" x="0px" y="0px"
	 width="100%" viewBox="0 0 1024 1024" enable-background="new 0 0 1024 1024" xml:space="preserve">
<path fill="#000000" opacity="1.000000" stroke="none" 
	d="
M539.999390,462.266052 
	C532.833435,462.259796 526.167358,462.232605 519.501343,462.252319 
	C512.883423,462.271942 512.287720,462.830566 512.213623,469.271667 
	C512.156128,474.270447 512.091614,479.273865 512.242249,484.268799 
	C512.353333,487.951752 510.778839,489.233185 507.157654,489.203735 
	C491.993408,489.080322 476.826813,489.064697 461.662781,489.199677 
	C457.474640,489.236938 455.684540,487.877563 455.694427,483.440521 
	C455.800873,435.611847 455.803436,387.782745 455.713715,339.954010 
	C455.706085,335.886749 457.396057,334.827301 461.117279,334.854156 
	C476.281647,334.963654 491.449310,335.007996 506.611542,334.788574 
	C511.073212,334.724091 512.323181,336.400940 512.292908,340.652466 
	C512.132629,363.149292 512.325562,385.649048 512.095703,408.144714 
	C512.045288,413.079498 513.377563,414.943359 518.550354,414.781952 
	C531.020142,414.392883 543.557800,415.330994 555.911011,412.917419 
	C576.083801,408.975983 586.540771,398.225525 589.265930,377.886139 
	C590.595703,367.961090 590.244019,358.000488 587.146179,348.223969 
	C583.095032,335.438477 574.317993,327.901459 561.773132,324.372467 
	C554.215881,322.246552 546.446106,321.349213 538.589050,321.346832 
	C509.591705,321.338013 480.594360,321.352539 451.597015,321.334137 
	C445.049469,321.329987 444.985596,321.205048 444.991974,314.534912 
	C445.004242,301.702820 445.114319,288.869110 444.938873,276.039459 
	C444.877838,271.576569 446.404999,269.831177 451.017212,269.851471 
	C481.846985,269.987244 512.680603,269.669312 543.506775,270.031342 
	C559.164001,270.215240 574.802673,271.586426 589.711792,277.101654 
	C620.972900,288.665955 638.883301,311.642212 645.051270,343.752899 
	C649.425293,366.524597 648.307556,389.231323 639.194763,410.955017 
	C627.612793,438.564606 605.708313,453.221436 577.246765,459.147461 
	C565.158997,461.664276 552.867554,462.628998 539.999390,462.266052 
z"/>
<path fill="#000000" opacity="1.000000" stroke="none" 
	d="
M448.795471,565.228394 
	C454.998444,567.722473 455.741425,567.255127 455.763367,560.896179 
	C455.810547,547.233337 455.915436,533.568787 455.736420,519.908325 
	C455.679657,515.574646 457.307678,513.949951 461.558411,513.973938 
	C476.886932,514.060425 492.217346,514.045532 507.545105,513.884644 
	C511.395233,513.844238 512.362244,515.541016 512.326294,519.031738 
	C512.206116,530.693970 512.764526,542.381104 512.203247,554.017212 
	C510.973389,579.514893 528.778870,596.656494 551.254578,601.816650 
	C553.422791,602.314453 555.803406,602.267517 557.751526,603.620789 
	C557.296204,605.854309 555.549255,605.778198 554.214294,606.082642 
	C510.291443,616.096924 467.627502,612.351013 427.223114,592.230103 
	C364.684082,561.086304 326.162354,510.863617 313.186310,442.141418 
	C306.601379,407.267242 311.102417,372.841248 322.901306,339.390503 
	C323.990112,336.303619 325.750580,334.886597 329.145996,334.916534 
	C341.474823,335.025269 353.807159,335.027130 366.134644,334.838989 
	C370.505829,334.772308 371.269745,336.275238 369.907013,340.218231 
	C361.266357,365.220093 357.334229,390.966492 359.368225,417.361786 
	C363.254181,467.789459 385.000610,508.019775 428.293365,535.548523 
	C432.077454,537.954712 436.061340,540.076965 440.082214,542.069153 
	C442.526520,543.280212 443.484009,544.944092 443.358215,547.596436 
	C443.216248,550.588806 443.585388,553.620361 443.270782,556.585938 
	C442.814545,560.886902 444.468170,563.613831 448.795471,565.228394 
z"/>
<path fill="#000000" opacity="1.000000" stroke="none" 
	d="
M692.264282,393.604340 
	C685.766235,359.523041 670.979980,329.544800 651.907715,301.428864 
	C633.143860,273.767700 610.700073,249.097076 589.072632,223.755096 
	C567.546143,198.531387 546.088379,173.247589 527.748840,145.516495 
	C522.715332,137.905289 518.434814,129.843170 514.010681,122.135132 
	C512.463501,122.330391 512.154480,123.174995 511.787109,123.888336 
	C498.648407,149.402878 480.646545,171.513443 462.903931,193.809814 
	C446.930573,213.882858 430.110016,233.286255 415.138306,254.149948 
	C413.488403,256.449219 411.715576,258.018463 408.636505,257.999908 
	C395.971558,257.923492 383.305725,258.004822 370.640228,257.992676 
	C369.178741,257.991272 367.594299,258.170441 366.493225,256.729218 
	C366.243774,254.624771 367.904877,253.481903 368.955902,252.066818 
	C390.165497,223.511337 414.522766,197.683228 438.684479,171.688446 
	C461.609680,147.024017 484.516541,122.343719 502.178528,93.419975 
	C505.970032,87.210922 509.465210,80.820915 513.647583,73.557922 
	C516.832703,79.089142 519.464050,83.823769 522.248596,88.466492 
	C536.208679,111.742424 553.655640,132.327408 571.897522,152.259460 
	C600.800171,183.839935 630.583923,214.640091 655.892944,249.339020 
	C674.023804,274.196777 690.157471,300.157379 701.037231,329.091492 
	C708.276794,348.344818 712.980469,368.108276 714.484619,388.752075 
	C717.528381,430.527130 708.011719,469.373688 688.707947,506.150421 
	C687.833252,507.816803 687.387329,509.898376 684.149475,511.255798 
	C696.615845,472.254150 699.967102,433.471924 692.264282,393.604340 
z"/>
<path fill="#000000" opacity="1.000000" stroke="none" 
	d="
M357.256409,696.909180 
	C353.925812,706.922424 353.925812,706.922424 335.013580,720.386902 
	C344.073364,734.152466 353.159241,747.957642 361.968903,761.343140 
	C361.255707,763.326782 360.173859,763.303406 359.205658,763.306030 
	C349.208496,763.333374 339.210144,763.246765 329.214630,763.378479 
	C326.149017,763.418884 324.823792,761.555603 323.452148,759.388062 
	C316.771423,748.830811 309.944763,738.363525 303.424927,727.708313 
	C301.566772,724.671631 299.592590,723.151489 295.892700,723.315247 
	C289.573456,723.594971 283.228058,723.530640 276.902679,723.327759 
	C273.225403,723.209900 271.859711,724.563660 271.929474,728.258789 
	C272.111786,737.919861 271.816742,747.592590 272.128387,757.247253 
	C272.285858,762.126648 270.517822,763.661926 265.752716,763.438660 
	C258.437103,763.096008 251.091202,763.221558 243.763672,763.389221 
	C240.234955,763.469910 238.655090,762.425659 238.664032,758.601440 
	C238.753754,720.277954 238.747147,681.954163 238.660202,643.630676 
	C238.652023,640.025513 240.266998,638.973633 243.490631,639.013855 
	C270.635895,639.352844 297.798035,638.057922 324.928131,639.748169 
	C341.142059,640.758362 353.253052,649.104919 356.776337,661.943054 
	C359.909729,673.360413 360.219208,684.934631 357.256409,696.909180 
M298.494141,664.190308 
	C291.171356,664.184509 283.848145,664.219788 276.525940,664.151672 
	C273.812408,664.126465 271.995422,664.807373 272.015991,667.990295 
	C272.074097,676.976624 272.070740,685.963501 272.053070,694.950073 
	C272.047913,697.587952 273.137878,698.981873 275.909729,698.955200 
	C287.889893,698.840027 299.888947,699.142273 311.844910,698.554993 
	C320.998688,698.105469 325.558746,692.621094 325.748993,683.508301 
	C325.783691,681.845032 325.765503,680.179199 325.718018,678.516113 
	C325.506622,671.113525 322.515350,667.294373 315.364380,665.143311 
	C310.140625,663.571899 304.785431,664.441772 298.494141,664.190308 
z"/>
<path fill="#000000" opacity="1.000000" stroke="none" 
	d="
M707.700928,754.264038 
	C701.917480,745.081604 696.215149,736.273499 690.765137,727.312073 
	C688.986328,724.387146 686.857605,723.214417 683.455994,723.326111 
	C676.967712,723.539001 670.465088,723.489807 663.973022,723.343323 
	C660.493958,723.264893 659.261902,724.722778 659.312988,728.113159 
	C659.443481,736.771606 659.384277,745.433411 659.351257,754.093689 
	C659.311768,764.424133 660.369324,763.263550 649.870117,763.348328 
	C644.874146,763.388672 639.877380,763.325317 634.880981,763.329895 
	C626.843811,763.337219 626.840576,763.344543 626.838745,755.051270 
	C626.834167,734.066406 626.832825,713.081543 626.830017,692.096680 
	C626.827942,676.441284 626.962952,660.783997 626.738647,645.131775 
	C626.672363,640.508972 628.415283,638.896423 632.838135,638.968262 
	C658.970032,639.392822 685.119202,638.102722 711.238953,639.719482 
	C717.104248,640.082581 722.779663,641.531738 728.095947,643.966431 
	C735.777649,647.484436 740.903931,653.473022 743.216309,661.602600 
	C746.608521,673.528320 746.879944,685.572754 743.652527,697.586304 
	C741.118408,707.019470 735.311340,713.700806 726.273376,717.550293 
	C724.955872,718.111511 723.278687,718.239319 722.329163,720.637268 
	C731.099548,734.087830 740.127319,747.933044 749.034729,761.593689 
	C747.295227,763.849304 745.496887,763.281128 743.939453,763.296997 
	C736.778687,763.370056 729.538208,762.673218 722.476501,763.514160 
	C714.748718,764.434509 710.718750,760.859680 707.700928,754.264038 
M660.369080,698.296814 
	C673.810120,699.538086 687.320190,699.708374 700.677002,698.182129 
	C709.952393,697.122314 713.388977,690.408020 712.662964,678.438904 
	C712.149170,669.968079 707.553772,664.843384 698.722961,664.464417 
	C686.915588,663.957703 675.073914,664.256226 663.247009,664.195618 
	C660.849915,664.183350 659.397095,665.199036 659.422607,667.721680 
	C659.523438,677.695862 658.816406,687.680786 660.369080,698.296814 
z"/>
<path fill="#000000" opacity="1.000000" stroke="none" 
	d="
M426.896576,664.987610 
	C430.162048,657.639465 433.448975,650.708374 436.298645,643.601929 
	C437.719818,640.057922 439.941559,638.908142 443.543488,638.951782 
	C453.873260,639.077087 464.208282,639.128418 474.535553,638.922363 
	C478.459991,638.844116 480.567871,640.396484 482.155365,643.887878 
	C491.805176,665.110596 501.636810,686.250549 511.369049,707.435974 
	C518.668579,723.325867 525.941833,739.228027 533.142517,755.162903 
	C534.203674,757.511169 535.912842,759.740417 535.393921,763.325684 
	C527.621460,763.325684 519.749878,762.574829 512.084900,763.512756 
	C502.145782,764.728943 496.272034,761.493958 494.339478,751.527100 
	C494.093140,750.256653 492.969513,749.149048 492.754395,747.880920 
	C491.041748,737.784485 484.871368,735.566589 475.341766,736.217041 
	C461.405426,737.168213 447.372894,736.794800 433.381531,736.783936 
	C430.601562,736.781738 429.119354,737.663391 428.108337,740.198303 
	C425.517578,746.694092 422.744232,753.117310 420.025116,759.561584 
	C419.239655,761.423096 418.467407,763.309448 415.927368,763.306213 
	C405.297485,763.292664 394.667603,763.300537 382.592804,763.300537 
	C397.590973,730.015808 412.164276,697.674072 426.896576,664.987610 
M443.881744,703.281921 
	C443.117645,705.746643 441.267944,707.908142 441.644684,710.566772 
	C442.782745,711.990234 444.204468,711.667542 445.478668,711.672668 
	C454.443420,711.709106 463.410065,711.594055 472.372528,711.742371 
	C476.574921,711.811829 477.236755,710.305115 475.656982,706.646179 
	C470.855774,695.525757 466.252197,684.320068 461.506165,673.175537 
	C460.959137,671.891052 460.776215,670.185669 457.909790,669.533813 
	C453.377686,680.435547 448.776367,691.503784 443.881744,703.281921 
z"/>
<path fill="#000000" opacity="1.000000" stroke="none" 
	d="
M873.787964,737.782104 
	C894.703064,737.809692 915.200500,737.930908 935.695068,737.741150 
	C940.477173,737.696960 942.350281,739.323425 942.096436,744.084290 
	C941.839478,748.903076 941.975647,753.746826 942.050659,758.577942 
	C942.101746,761.866943 940.849426,763.364929 937.332886,763.356689 
	C905.671936,763.282715 874.010681,763.290649 842.349731,763.376770 
	C838.845764,763.386292 837.700073,761.979797 837.704224,758.617310 
	C837.751953,720.290710 837.746521,681.963989 837.652588,643.637512 
	C837.643921,640.086365 839.153564,638.971680 842.436523,638.973999 
	C873.930969,638.996582 905.425476,638.988831 936.919739,638.896912 
	C940.522522,638.886414 942.127075,640.259460 942.053772,643.881653 
	C941.955994,648.711853 941.860413,653.555054 942.105591,658.375305 
	C942.330994,662.807190 940.875671,664.510315 936.133728,664.451355 
	C916.973450,664.213074 897.808350,664.350098 878.645020,664.383972 
	C871.198181,664.397156 870.917419,664.749329 870.947571,672.429749 
	C870.960632,675.761902 871.289673,679.155334 870.780762,682.412476 
	C869.991760,687.461304 872.351318,688.228821 876.640564,688.175171 
	C891.802246,687.985596 906.967529,688.079773 922.131409,688.070312 
	C923.964355,688.069153 925.801697,688.178528 927.629333,688.085938 
	C931.335266,687.898071 933.211365,689.305298 933.055420,693.297058 
	C932.860474,698.288696 932.881531,703.296814 933.027893,708.291321 
	C933.141968,712.184448 931.490112,713.474426 927.638733,713.441833 
	C910.642944,713.297668 893.645203,713.376709 876.648132,713.406006 
	C870.262512,713.416992 870.198303,713.627808 870.543701,719.844849 
	C870.802124,724.496094 870.795898,729.164429 870.813232,733.825500 
	C870.820435,735.762329 870.708069,737.619202 873.787964,737.782104 
z"/>
<path fill="#000000" opacity="1.000000" stroke="none" 
	d="
M189.247650,642.496826 
	C204.210556,647.666565 209.797668,659.044189 211.029739,673.337769 
	C211.718002,681.322632 211.607254,689.342468 209.832382,697.192993 
	C206.889862,710.208130 198.853745,718.552979 186.009445,722.203674 
	C178.254791,724.407715 170.253922,724.790466 162.278091,724.935364 
	C151.291382,725.134949 140.296448,725.076843 129.308487,724.906067 
	C125.459587,724.846252 123.943321,726.174622 124.019333,730.111389 
	C124.199341,739.433044 123.975380,748.761902 124.101570,758.085327 
	C124.152504,761.848938 122.885818,763.504944 118.885506,763.386475 
	C111.232201,763.159851 103.563446,763.176819 95.909004,763.384094 
	C92.073944,763.487976 90.623878,762.220886 90.634445,758.250610 
	C90.735977,720.117126 90.720528,681.983154 90.632271,643.849548 
	C90.624268,640.391541 91.923256,639.014648 95.282333,639.061279 
	C122.246246,639.435181 149.228424,638.187866 176.172791,639.842896 
	C180.439880,640.104980 184.637146,641.503906 189.247650,642.496826 
M177.726883,677.038574 
	C176.186935,668.649048 171.114258,664.541138 161.387604,664.362122 
	C150.588165,664.163269 139.780914,664.396851 128.980911,664.213989 
	C125.304321,664.151794 123.953308,665.464355 124.026093,669.128784 
	C124.197693,677.767822 124.219658,686.414734 124.045563,695.053345 
	C123.969849,698.810303 125.525513,699.993774 129.079666,699.940552 
	C138.218552,699.803406 147.360870,699.910522 156.501740,699.886414 
	C174.035721,699.840088 178.387177,695.339417 177.726883,677.038574 
z"/>
<path fill="#000000" opacity="1.000000" stroke="none" 
	d="
M614.922729,516.916260 
	C652.869263,481.283234 673.139343,437.657379 676.691345,385.977661 
	C679.284607,390.130829 680.025574,394.650055 680.780273,399.054840 
	C686.030273,429.696808 686.891174,460.301758 677.841003,490.419006 
	C666.027405,529.732849 644.708252,561.868286 606.812866,580.675049 
	C591.654907,588.197693 575.686035,592.635925 558.543823,589.281616 
	C544.891052,586.610107 534.214233,579.650879 528.086304,566.701965 
	C527.589233,565.651611 527.118530,564.578247 526.763000,563.474487 
	C526.415405,562.395142 526.230896,561.263245 525.785645,559.335571 
	C559.801208,554.226379 589.284180,539.920044 614.922729,516.916260 
z"/>
<path fill="#000000" opacity="1.000000" stroke="none" 
	d="
M560.813477,747.994995 
	C560.807129,713.516907 560.799622,679.538147 560.796509,645.559326 
	C560.795898,639.046509 560.933533,638.927979 567.565491,638.936707 
	C574.894226,638.946350 582.224060,639.014038 589.551147,638.904175 
	C592.890564,638.854126 594.311768,640.053223 594.305481,643.572937 
	C594.237183,681.882202 594.258301,720.191711 594.321777,758.500977 
	C594.327148,761.753235 593.391663,763.436890 589.787109,763.373108 
	C581.628357,763.228699 573.463867,763.266602 565.304138,763.391296 
	C562.112793,763.439941 560.716919,762.176208 560.804749,758.987122 
	C560.901062,755.492065 560.818481,751.992065 560.813477,747.994995 
z"/>
<path fill="#000000" opacity="1.000000" stroke="none" 
	d="
M774.932007,653.017639 
	C775.134766,637.241089 772.983826,639.109680 788.533386,638.987183 
	C793.029236,638.951843 797.538879,639.198242 802.018188,638.923889 
	C806.867859,638.626770 808.309814,640.669556 808.288818,645.370667 
	C808.139709,678.675049 808.207214,711.980469 808.206299,745.285522 
	C808.206177,749.115601 808.224670,752.945679 808.208618,756.775696 
	C808.181152,763.303162 808.172485,763.318359 801.423523,763.338501 
	C794.929077,763.357849 788.434509,763.353821 781.940063,763.336792 
	C774.980957,763.318604 774.912964,763.258667 774.913147,756.427002 
	C774.913940,722.122742 774.925537,687.818542 774.932007,653.017639 
z"/>
<path fill="#000000" opacity="1.000000" stroke="none" 
	d="
M334.849396,303.995911 
	C334.845337,295.676849 334.908722,287.855835 334.809113,280.036896 
	C334.755981,275.864166 336.576508,273.946350 340.786072,273.951141 
	C366.243042,273.980103 391.700195,273.969543 417.157043,273.892456 
	C420.563477,273.882141 421.944916,275.308380 421.940704,278.657806 
	C421.924530,291.468872 421.995270,304.280151 422.069855,317.091156 
	C422.088379,320.275146 420.580078,321.420929 417.445129,321.412292 
	C391.655396,321.341125 365.865204,321.319397 340.075653,321.416595 
	C336.084869,321.431641 334.747162,319.643250 334.838318,315.975067 
	C334.933380,312.150604 334.852844,308.321777 334.849396,303.995911 
z"/>
<path fill="#000000" opacity="1.000000" stroke="none" 
	d="
M454.961243,839.900024 
	C454.985046,825.596130 455.137787,811.775635 454.963623,797.959167 
	C454.904053,793.237122 456.542267,791.536926 461.348846,791.578491 
	C473.570587,791.684265 473.583435,791.491333 478.448029,802.711426 
	C481.525421,809.809387 484.563263,816.924438 487.662109,824.132446 
	C489.673706,822.966553 490.129883,821.492920 490.710907,820.161987 
	C493.040955,814.824829 495.337616,809.472351 497.584137,804.099487 
	C503.220367,790.619385 503.451904,790.531799 518.024963,791.537170 
	C520.725281,791.723511 521.415405,792.875977 521.408203,795.260132 
	C521.357727,811.909424 521.283936,828.559326 521.389648,845.207947 
	C521.420776,850.120300 518.101562,849.294128 515.218140,849.285522 
	C512.177368,849.276428 508.630096,850.168579 508.700073,844.979858 
	C508.852661,833.666931 508.747223,822.350525 508.747223,810.211304 
	C505.824371,813.499084 504.804962,816.914490 503.370209,820.087524 
	C500.833649,825.697144 498.217560,831.274780 495.854004,836.957031 
	C494.523773,840.155029 492.504578,841.165039 489.016632,841.396851 
	C483.771423,841.745544 481.231842,839.670349 479.396667,834.940247 
	C476.121399,826.498047 472.238953,818.291382 468.610413,809.986267 
	C468.213715,810.082092 467.817047,810.177917 467.420349,810.273743 
	C467.420349,821.360352 467.326843,832.448120 467.474365,843.532715 
	C467.521942,847.108459 467.417145,849.588196 462.632355,849.418762 
	C455.668884,849.172119 455.216583,849.123413 455.002167,843.381653 
	C454.964935,842.383667 454.974243,841.383911 454.961243,839.900024 
z"/>
<path fill="#000000" opacity="1.000000" stroke="none" 
	d="
M554.663208,838.826782 
	C554.661316,825.039673 554.657043,811.728394 554.660095,798.417114 
	C554.661682,791.526123 554.667358,791.561279 561.310303,791.609619 
	C567.799133,791.656860 574.289001,791.576782 580.777588,791.636169 
	C587.485962,791.697632 594.145264,792.587585 597.491333,799.311584 
	C600.899597,806.160400 599.924133,812.896301 594.452698,818.842773 
	C596.060120,821.989441 599.250061,823.920898 600.229187,827.448242 
	C603.408142,838.901184 597.078247,848.435059 585.082581,849.115173 
	C576.125244,849.622986 567.118347,849.221375 558.134399,849.312134 
	C555.245117,849.341309 554.324768,847.995239 554.564636,845.289001 
	C554.740417,843.306152 554.640808,841.298950 554.663208,838.826782 
M587.685242,833.096191 
	C587.424988,827.000305 585.884766,825.392334 580.033447,825.200500 
	C578.211609,825.140747 576.385986,825.191772 574.562134,825.195435 
	C567.175293,825.210388 567.440979,825.222107 567.133179,832.483154 
	C566.934021,837.181763 568.345520,839.298462 573.226013,838.750122 
	C575.519043,838.492432 577.864685,838.736572 580.184570,838.677368 
	C583.615967,838.589905 586.287964,837.279968 587.685242,833.096191 
M570.018555,802.347900 
	C569.403625,802.549927 568.468750,802.565186 568.224548,802.983582 
	C566.346924,806.200928 566.805725,809.823914 567.624695,813.052185 
	C568.362305,815.959595 571.564819,814.572571 573.710327,814.755066 
	C575.841797,814.936279 578.016296,814.848877 580.153931,814.667358 
	C583.797424,814.357971 585.932068,812.429382 586.008484,808.613464 
	C586.085632,804.755005 583.926941,802.748291 580.324219,802.434021 
	C577.203308,802.161743 574.043396,802.335571 570.018555,802.347900 
z"/>
<path fill="#000000" opacity="1.000000" stroke="none" 
	d="
M682.009827,791.676636 
	C687.664856,790.663391 690.703918,793.146057 693.293945,797.476379 
	C699.020630,807.050964 705.160156,816.378784 711.143677,825.799377 
	C711.311035,826.062866 711.619507,826.236816 712.678406,827.178162 
	C712.678406,819.784973 712.678955,813.096558 712.678162,806.408081 
	C712.677856,803.574890 712.954163,800.707520 712.612671,797.915894 
	C711.972595,792.682556 714.241699,791.439636 719.159546,791.501221 
	C723.743713,791.558594 725.270935,792.935303 725.203491,797.532532 
	C724.983398,812.528503 725.180054,827.530090 725.071045,842.528442 
	C725.053467,844.945129 726.206726,848.143799 722.424744,849.177979 
	C717.460938,850.535217 711.877808,849.147156 709.843140,845.952698 
	C703.846375,836.537903 697.904724,827.087952 691.920166,817.665344 
	C691.044312,816.286255 690.053040,814.980530 688.260925,812.420532 
	C688.260925,823.344299 688.269836,832.906738 688.257751,842.469116 
	C688.249878,848.699097 683.634155,851.580872 677.802307,849.063293 
	C675.826965,848.210632 675.905273,846.487488 675.903381,844.848328 
	C675.884949,828.682739 675.992554,812.516418 675.850891,796.352173 
	C675.812805,792.004761 678.094727,791.336853 682.009827,791.676636 
z"/>
<path fill="#000000" opacity="1.000000" stroke="none" 
	d="
M774.747681,849.706299 
	C764.419556,847.677979 758.669495,841.711304 756.330933,831.903931 
	C754.584167,824.578552 754.783203,817.314880 756.265381,810.124207 
	C759.356506,795.126892 771.795837,787.924011 788.326233,791.278748 
	C795.293640,792.692688 801.532349,795.323425 803.793213,802.896240 
	C804.438416,805.057129 805.778809,807.856689 802.632446,809.473633 
	C799.551636,811.056885 793.592346,810.029358 792.364258,807.517700 
	C789.314697,801.280762 783.732239,801.968506 778.499207,802.513611 
	C773.539734,803.030334 770.490112,806.308228 769.378296,811.194214 
	C767.955994,817.444092 767.794312,823.718811 769.246338,829.997986 
	C770.228271,834.243958 772.618958,837.375000 776.963928,838.255920 
	C781.910645,839.258789 786.947815,839.587524 791.210327,835.974304 
	C793.317871,834.187805 792.910400,831.679993 792.459290,829.449341 
	C791.906189,826.714783 789.398926,827.407166 787.519226,827.321411 
	C781.390381,827.041626 780.488159,826.114685 781.002319,820.939392 
	C781.287720,818.066284 782.608154,816.819641 785.492920,816.864807 
	C790.485901,816.943054 795.484558,816.968689 800.474731,816.815491 
	C804.257812,816.699341 805.351074,818.528931 805.280334,822.026733 
	C805.132202,829.349182 805.285583,836.677124 805.225647,844.002136 
	C805.182678,849.258728 801.441345,851.375244 797.122742,848.253235 
	C795.395508,847.004578 794.343506,847.017395 792.744751,847.772461 
	C787.120667,850.428589 781.208069,850.708557 774.747681,849.706299 
z"/>
<path fill="#000000" opacity="1.000000" stroke="none" 
	d="
M484.000000,512.107178 
	C471.856934,512.115967 460.211853,512.004333 448.571838,512.196716 
	C444.383270,512.265930 442.333862,511.049866 442.692719,506.532837 
	C442.968384,503.062561 442.918060,499.538361 442.672943,496.062073 
	C442.388824,492.032928 444.210114,490.908203 447.974548,490.923553 
	C471.925568,491.021271 495.877533,491.026855 519.828369,490.904846 
	C523.799438,490.884644 525.708313,491.996613 525.395569,496.284943 
	C525.130310,499.920746 525.284912,503.601837 525.471008,507.251801 
	C525.659607,510.949768 524.010986,512.216614 520.425415,512.177673 
	C508.451416,512.047485 496.475311,512.115112 484.000000,512.107178 
z"/>
<path fill="#000000" opacity="1.000000" stroke="none" 
	d="
M239.178284,849.297791 
	C235.852554,849.430176 234.915787,847.768005 234.918045,845.232422 
	C234.932770,828.750183 234.963593,812.268005 234.949829,795.785767 
	C234.947418,792.887024 236.152069,791.586304 239.156036,791.631409 
	C247.311951,791.754150 255.480743,791.460632 263.625153,791.797668 
	C273.535980,792.207703 279.550537,797.482117 280.695557,807.314453 
	C282.670807,824.275879 275.485626,831.764771 260.132080,832.125000 
	C248.492935,832.398132 248.197266,832.339783 248.236908,843.903625 
	C248.261581,851.101440 243.411194,848.979675 239.178284,849.297791 
M255.459885,820.754028 
	C257.763519,820.599854 260.125885,820.717041 262.358307,820.233765 
	C266.723846,819.288635 267.869324,815.854858 267.873932,811.940063 
	C267.878143,808.346191 267.396851,804.582031 263.233337,803.578857 
	C258.737061,802.495544 253.559723,801.669678 249.630051,803.805359 
	C246.249176,805.642944 248.680267,810.516418 248.115585,813.992188 
	C248.089432,814.153259 248.135895,814.325928 248.110840,814.487366 
	C247.317245,819.598877 249.630768,821.513306 255.459885,820.754028 
z"/>
<path fill="#000000" opacity="1.000000" stroke="none" 
	d="
M410.776428,815.995178 
	C410.772614,808.997620 410.900726,802.495056 410.712402,796.001709 
	C410.609955,792.468201 411.959900,791.438354 415.420624,791.499634 
	C423.831085,791.648682 423.557007,791.490906 423.606323,800.139526 
	C423.666077,810.625671 424.348389,821.096497 423.363556,831.588501 
	C422.458984,841.224976 417.482239,847.191650 408.018799,849.380859 
	C401.875427,850.802002 395.742981,850.590149 389.714478,848.973328 
	C381.044617,846.648132 376.228790,840.320374 375.872650,829.867188 
	C375.487091,818.549194 375.822845,807.208069 375.702820,795.878540 
	C375.667725,792.565552 377.127655,791.625427 380.233063,791.557495 
	C388.367706,791.379700 388.360535,791.268188 388.358185,799.525024 
	C388.355560,808.689880 388.300568,817.855286 388.383820,827.019409 
	C388.460083,835.410889 391.859680,838.832520 399.770599,838.734497 
	C407.224030,838.642151 410.664246,834.984802 410.761810,826.991943 
	C410.804504,823.493103 410.773834,819.993347 410.776428,815.995178 
z"/>
<path fill="#000000" opacity="1.000000" stroke="none" 
	d="
M423.903381,322.966125 
	C423.929230,305.645508 424.066071,288.819031 423.917938,271.995087 
	C423.876038,267.233307 425.587891,265.588440 430.364777,265.702576 
	C445.262177,266.058533 443.075470,263.979095 443.169678,278.375336 
	C443.278717,295.033844 443.216187,311.693542 443.204468,328.352722 
	C443.199707,335.136353 443.082031,335.223267 436.119751,335.250061 
	C435.953156,335.250702 435.786560,335.251862 435.619965,335.250458 
	C422.884064,335.144379 423.871246,336.949280 423.903381,322.966125 
z"/>
<path fill="#000000" opacity="1.000000" stroke="none" 
	d="
M312.249573,791.734741 
	C322.724213,791.658325 322.174744,790.477478 322.182770,801.025513 
	C322.190674,811.358459 322.368439,821.697205 322.068115,832.021667 
	C321.932129,836.695923 323.610199,838.195129 328.125397,837.942810 
	C333.608032,837.636353 339.123566,837.974365 344.619629,837.831360 
	C347.805542,837.748413 348.953705,839.258240 348.380859,842.103210 
	C347.845276,844.763367 350.253571,849.186279 344.830841,849.249878 
	C334.166229,849.374939 323.499054,849.264954 312.833069,849.297546 
	C310.261475,849.305359 309.206818,847.957092 309.221771,845.585510 
	C309.325592,829.119385 309.432556,812.653198 309.598541,796.187683 
	C309.615967,794.460083 309.221771,792.332520 312.249573,791.734741 
z"/>
<path fill="#000000" opacity="1.000000" stroke="none" 
	d="
M95.308060,816.659912 
	C128.400513,816.619812 161.025665,816.607300 193.650818,816.596313 
	C194.649490,816.596008 195.649689,816.650513 196.646515,816.611511 
	C199.134018,816.514221 200.916809,817.194763 200.920197,820.133728 
	C200.923386,822.900085 199.963135,824.402161 196.827240,824.395081 
	C163.203506,824.319275 129.579544,824.331177 95.955658,824.325500 
	C93.976234,824.325134 92.205711,824.032227 92.036583,821.554932 
	C91.885109,819.336243 91.746147,817.063354 95.308060,816.659912 
z"/>
<path fill="#000000" opacity="1.000000" stroke="none" 
	d="
M891.000122,816.577026 
	C906.135315,816.583984 920.770508,816.571777 935.405518,816.617859 
	C937.810913,816.625427 940.706360,816.056396 940.775757,819.976501 
	C940.845459,823.909607 938.504822,824.400513 935.236328,824.392822 
	C904.469421,824.320251 873.702271,824.353943 842.935181,824.361511 
	C840.205505,824.362183 837.535889,824.633972 837.609680,820.460083 
	C837.683228,816.303528 840.444214,816.648499 843.102234,816.642212 
	C858.901550,816.604675 874.700806,816.595764 891.000122,816.577026 
z"/>
<path fill="#000000" opacity="1.000000" stroke="none" 
	d="
M640.808838,849.179077 
	C631.054993,849.304443 630.764099,849.049927 630.745483,839.856079 
	C630.717041,825.859619 630.695984,811.862854 630.778503,797.866821 
	C630.790405,795.845886 629.782715,792.947876 632.369263,792.097717 
	C635.488220,791.072510 638.968811,791.047668 642.191650,792.000122 
	C643.682434,792.440735 643.309998,794.261902 643.311218,795.547852 
	C643.326721,812.043701 643.319031,828.539490 643.288696,845.035339 
	C643.285706,846.680725 643.400024,848.477478 640.808838,849.179077 
z"/>
<path fill="#000000" opacity="1.000000" stroke="none" 
	d="
M808.701538,885.294739 
	C810.505493,888.306641 812.102478,891.007629 814.068542,894.333008 
	C816.186646,891.564148 815.484558,888.976501 815.397949,886.500000 
	C815.334900,884.697327 814.948364,882.468079 817.577026,882.294434 
	C820.220215,882.119812 820.193665,884.304443 820.205383,886.158752 
	C820.238953,891.471802 820.264099,896.785400 820.214050,902.098145 
	C820.198853,903.709656 820.388428,905.594604 818.156067,906.075745 
	C816.184082,906.500732 815.020752,905.250488 814.122559,903.798157 
	C812.057190,900.458374 810.078064,897.065308 807.137390,893.865723 
	C807.137390,896.934937 807.176697,900.004944 807.121460,903.073120 
	C807.092224,904.694824 806.553772,906.094055 804.604858,906.118347 
	C802.639954,906.142944 802.045349,904.683655 802.014099,903.115234 
	C801.908325,897.804565 801.893738,892.490967 801.931030,887.179199 
	C801.943420,885.405762 801.609558,883.268616 803.749939,882.422119 
	C806.160645,881.468628 807.378479,883.254578 808.701538,885.294739 
z"/>
<path fill="#000000" opacity="1.000000" stroke="none" 
	d="
M454.519043,903.657654 
	C452.428040,900.232300 450.543640,897.131287 448.659241,894.030273 
	C448.200287,894.061890 447.741302,894.093445 447.282349,894.125061 
	C447.282349,897.112366 447.311829,900.100098 447.270477,903.086792 
	C447.248291,904.691956 446.885345,906.160400 444.808411,906.051514 
	C443.036316,905.958740 442.741486,904.609436 442.732788,903.223145 
	C442.695251,897.248535 442.700012,891.273682 442.706024,885.298889 
	C442.707428,883.898926 442.993195,882.606873 444.608032,882.213257 
	C446.290863,881.802979 447.544342,882.552124 448.409851,883.919006 
	C450.600586,887.378967 452.734711,890.874695 455.769806,894.185547 
	C455.769806,891.445007 455.747070,888.704224 455.778198,885.964050 
	C455.797180,884.292664 455.726868,882.366882 457.995544,882.169373 
	C460.497101,881.951538 460.994995,883.842529 461.018066,885.793945 
	C461.080902,891.104248 461.090607,896.415955 461.039825,901.726379 
	C461.024414,903.341003 461.228241,905.266174 459.282532,906.001892 
	C457.240784,906.773987 455.782257,905.705566 454.519043,903.657654 
z"/>
<path fill="#000000" opacity="1.000000" stroke="none" 
	d="
M273.613342,896.004395 
	C273.613403,892.357910 273.765930,889.188110 273.570007,886.040039 
	C273.377716,882.949585 274.738098,881.841064 277.653351,881.908813 
	C280.313141,881.970642 282.971832,881.815002 285.562134,882.650696 
	C287.216278,883.184448 289.062408,883.993591 289.295380,885.636047 
	C290.029358,890.811096 290.743896,896.051575 290.663422,901.254272 
	C290.620209,904.046021 287.915039,905.626709 285.070007,906.183105 
	C275.370636,908.080078 273.660156,906.632080 273.613342,896.004395 
M282.208527,901.688660 
	C284.122925,901.388367 285.959686,900.850403 285.382446,898.363525 
	C284.987946,896.663757 283.412994,896.340332 281.856354,896.301392 
	C280.281342,896.262024 278.845062,896.498962 278.502808,898.398254 
	C278.082336,900.731750 279.137207,901.802490 282.208527,901.688660 
M284.395660,890.070007 
	C284.974304,886.689209 282.457642,886.765564 280.398163,886.733276 
	C278.722961,886.707092 278.187683,888.136597 278.546387,889.534790 
	C279.238251,892.231445 281.268311,891.825134 283.246826,891.231140 
	C283.535583,891.144409 283.760742,890.845825 284.395660,890.070007 
z"/>
<path fill="#000000" opacity="1.000000" stroke="none" 
	d="
M607.563477,902.927734 
	C607.282654,904.910095 606.795532,906.295349 604.761292,906.039062 
	C603.013733,905.818909 602.800537,904.410583 602.791809,903.065125 
	C602.752991,897.088135 602.753113,891.110229 602.824219,885.133728 
	C602.833130,884.378418 603.139648,883.184143 603.654968,882.947144 
	C607.837158,881.024109 612.135864,881.545166 616.149353,883.300659 
	C619.512268,884.771606 620.970154,888.563110 619.472656,891.228577 
	C616.632019,896.284851 616.789917,900.648804 620.361450,905.274597 
	C612.388611,908.767456 614.063660,897.908508 608.818604,898.276794 
	C607.058350,899.508789 608.030090,901.199951 607.563477,902.927734 
M610.289062,886.915771 
	C607.138245,887.153564 607.784424,889.598083 608.019836,891.362793 
	C608.294556,893.421692 610.220154,892.908264 611.629761,892.831909 
	C613.285828,892.742126 614.497437,891.931946 614.562195,890.128113 
	C614.649414,887.699768 612.902832,887.194458 610.289062,886.915771 
z"/>
<path fill="#000000" opacity="1.000000" stroke="none" 
	d="
M412.188049,890.696838 
	C414.356140,883.890198 418.342896,880.986450 423.865051,881.860962 
	C429.099854,882.689880 432.099121,886.742188 432.316406,893.075928 
	C432.496277,898.319275 431.818909,903.221130 426.486633,905.779297 
	C420.495331,908.653748 414.079437,905.440857 412.468872,898.994080 
	C411.818787,896.391968 411.506927,893.768433 412.188049,890.696838 
M426.481842,898.541565 
	C426.623169,897.233154 426.857666,895.927063 426.889557,894.616028 
	C427.020325,889.241699 425.119934,886.091492 421.805298,886.675476 
	C417.270050,887.474487 417.254028,891.225647 417.253113,894.790100 
	C417.252991,895.284058 417.278931,895.781128 417.337372,896.271423 
	C417.605286,898.517273 418.408539,900.551514 420.654236,901.374756 
	C422.944031,902.214294 424.849548,901.370972 426.481842,898.541565 
z"/>
<path fill="#000000" opacity="1.000000" stroke="none" 
	d="
M149.014923,905.925293 
	C146.480637,898.619080 148.014038,891.315247 147.710846,884.089233 
	C147.688110,883.547546 148.171921,882.815613 148.638382,882.451904 
	C150.542389,880.967407 160.524231,882.061646 162.527420,884.118164 
	C165.831818,887.510437 165.714020,891.396606 162.995773,894.942139 
	C161.459396,896.946045 161.707565,898.401001 162.788834,900.298950 
	C163.671021,901.847412 164.841339,903.354980 164.618240,905.589355 
	C157.224792,908.759644 159.069244,897.274109 153.613968,898.000916 
	C150.537094,900.201904 154.941193,905.516602 149.014923,905.925293 
M156.580811,887.039368 
	C154.807083,886.871704 152.705933,886.106812 152.420822,888.987488 
	C152.274689,890.463989 152.074600,892.211304 154.036102,892.668030 
	C155.813400,893.081909 157.857239,893.357056 159.014389,891.484863 
	C160.249207,889.487061 159.355713,888.023376 156.580811,887.039368 
z"/>
<path fill="#000000" opacity="1.000000" stroke="none" 
	d="
M628.898926,896.593994 
	C628.716736,893.153625 628.699463,890.152344 630.069519,887.353455 
	C631.950317,883.510803 635.107239,881.556580 639.322632,881.812378 
	C643.673523,882.076233 646.966980,884.148987 648.167908,888.600891 
	C648.683167,890.511047 649.089722,892.520386 649.093933,894.485657 
	C649.107910,901.040833 645.715637,905.636414 640.614746,906.309753 
	C634.061523,907.174744 630.904236,904.663635 628.898926,896.593994 
M635.284668,899.950989 
	C637.065735,902.115234 639.329712,902.435120 641.422180,900.824707 
	C644.906311,898.143127 643.886475,894.254944 643.407593,890.704346 
	C643.085449,888.315552 641.347290,886.893372 638.953796,886.725586 
	C636.071350,886.523499 634.759216,888.497314 634.363647,890.957214 
	C633.918030,893.728333 633.812927,896.561523 635.284668,899.950989 
z"/>
<path fill="#000000" opacity="1.000000" stroke="none" 
	d="
M777.950439,905.632202 
	C772.280396,901.369263 770.626038,891.062744 774.576965,885.773682 
	C777.229431,882.222900 780.891785,881.035706 785.178528,882.258179 
	C791.260742,883.992615 794.038818,890.862366 791.979126,898.867615 
	C790.393616,905.029968 786.083618,907.224426 777.950439,905.632202 
M783.955688,901.532288 
	C787.784912,898.337952 788.819885,892.529297 786.051697,888.808655 
	C784.541321,886.778687 782.365662,885.664246 780.040405,887.336426 
	C776.729980,889.717041 777.011536,893.405334 777.542542,896.830627 
	C778.007812,899.831970 779.602905,902.091797 783.955688,901.532288 
z"/>
<path fill="#000000" opacity="1.000000" stroke="none" 
	d="
M402.063049,893.042603 
	C402.039124,896.693115 402.064972,899.858276 401.973785,903.020081 
	C401.928223,904.599976 401.472229,906.068176 399.507446,906.162354 
	C397.198547,906.273071 396.825134,904.664001 396.756348,902.861694 
	C396.718262,901.863464 396.639618,900.859436 396.703308,899.865967 
	C396.892090,896.921448 395.266876,896.226685 392.675293,896.199768 
	C389.883423,896.170776 388.127075,896.880981 388.349152,900.099365 
	C388.440308,901.420227 388.328644,902.763794 388.209015,904.088013 
	C388.085358,905.456482 387.229065,906.136292 385.872864,906.173157 
	C384.481842,906.210999 383.525208,905.473450 383.519714,904.146301 
	C383.492157,897.488892 383.562317,890.830688 383.642120,884.173401 
	C383.659027,882.764587 384.541321,882.020020 385.918335,882.127930 
	C387.834320,882.278137 388.159882,883.667908 388.356293,885.300659 
	C388.614777,887.449219 387.314880,890.181458 390.257996,891.459045 
	C393.825836,893.007935 396.398560,891.126221 396.719086,886.898743 
	C396.860046,885.039490 396.107788,882.358826 399.093719,882.280029 
	C402.292389,882.195618 401.863007,884.986877 402.000397,887.061707 
	C402.121246,888.886475 402.050598,890.723999 402.063049,893.042603 
z"/>
<path fill="#000000" opacity="1.000000" stroke="none" 
	d="
M258.303680,889.827026 
	C259.834717,894.291565 261.266907,898.372253 262.655212,902.467957 
	C263.077393,903.713440 263.698120,905.165588 262.021240,905.928162 
	C260.459198,906.638489 259.237152,905.979004 258.141998,904.641907 
	C254.043991,899.638428 251.434326,899.614807 247.581375,904.588196 
	C246.203491,906.366882 244.785370,906.697754 242.184860,905.196655 
	C244.723129,898.004456 246.957886,890.571716 250.037766,883.507507 
	C251.208252,880.822876 254.330139,881.121094 256.018005,883.883545 
	C257.039948,885.556213 257.484161,887.581909 258.303680,889.827026 
M251.741425,892.686523 
	C251.380219,893.850952 250.310242,894.937683 251.332809,896.297729 
	C252.946411,896.629517 254.531921,896.530090 254.280045,894.467224 
	C254.192307,893.748779 254.903076,890.671875 251.741425,892.686523 
z"/>
<path fill="#000000" opacity="1.000000" stroke="none" 
	d="
M576.048340,890.148071 
	C576.391968,887.160339 574.939636,883.605469 578.034668,882.529541 
	C582.166565,881.093201 586.677246,881.388428 590.528870,883.906189 
	C593.414856,885.792725 593.616272,888.917786 593.079102,891.997437 
	C592.361145,896.112976 589.366699,897.888000 585.589233,898.068298 
	C582.454895,898.217896 580.982117,899.259705 581.204956,902.526672 
	C581.319946,904.212769 581.074280,906.094055 578.739868,906.097717 
	C576.038330,906.101990 576.180603,903.888611 576.127808,902.120544 
	C576.013489,898.291626 576.069336,894.457581 576.048340,890.148071 
M587.734009,889.568970 
	C587.182190,887.274597 585.465332,886.982422 583.520325,887.165955 
	C582.173279,887.293091 581.447327,888.133484 581.382935,889.449951 
	C581.312683,890.885315 580.788208,892.751831 582.613708,893.309021 
	C585.166443,894.088074 587.159119,893.223389 587.734009,889.568970 
z"/>
<path fill="#000000" opacity="1.000000" stroke="none" 
	d="
M336.228271,901.715271 
	C337.643463,901.764832 338.644135,901.751648 339.629211,901.869263 
	C340.918427,902.023254 341.824493,902.699402 341.807281,904.104919 
	C341.789734,905.532837 340.824890,906.194824 339.541534,906.220886 
	C336.225586,906.288330 332.906494,906.300354 329.590698,906.233154 
	C327.722168,906.195312 326.973114,904.855652 326.957153,903.226074 
	C326.898590,897.252380 326.931610,891.277588 326.951630,885.303345 
	C326.959167,883.051636 328.205414,881.977783 330.383514,881.950439 
	C333.204102,881.915100 336.026093,881.893005 338.846039,881.944336 
	C340.455048,881.973572 341.920532,882.462280 341.902527,884.422668 
	C341.887360,886.075378 340.572266,886.554321 339.192169,886.809265 
	C338.866913,886.869263 338.524506,886.847778 338.204895,886.925171 
	C336.158447,887.421082 332.751862,885.828247 332.509247,889.191956 
	C332.237305,892.961609 335.837738,891.238281 337.783295,891.761841 
	C339.024170,892.095825 339.999237,892.495605 340.000458,893.947754 
	C340.001648,895.398193 339.057373,895.960205 337.779358,896.118103 
	C337.121948,896.199280 336.456573,896.227722 335.793762,896.251404 
	C334.062897,896.313171 332.369598,896.419067 332.242432,898.748901 
	C332.101532,901.330444 333.774445,901.739319 336.228271,901.715271 
z"/>
<path fill="#000000" opacity="1.000000" stroke="none" 
	d="
M839.110901,901.019653 
	C836.541199,900.891846 835.295166,902.083801 834.587036,903.959595 
	C833.890747,905.804077 832.601501,906.790222 830.736389,906.016541 
	C828.735657,905.186707 829.707703,903.513000 830.161377,902.156738 
	C832.007263,896.638977 833.891968,891.134094 835.785889,885.632507 
	C836.396912,883.857605 837.146240,882.188171 839.415100,882.059631 
	C841.963074,881.915344 842.811035,883.613892 843.491760,885.638489 
	C845.691528,892.181152 847.947815,898.704895 850.142090,905.118286 
	C847.230286,906.878601 845.593994,906.229797 844.681580,903.970764 
	C843.700439,901.541565 841.883606,900.870544 839.110901,901.019653 
M840.796082,896.085999 
	C842.501770,893.779907 840.682678,892.294434 839.742737,890.198792 
	C837.486206,895.052429 837.486206,895.052429 840.796082,896.085999 
z"/>
<path fill="#000000" opacity="1.000000" stroke="none" 
	d="
M183.031555,906.356262 
	C176.019745,906.200195 176.005905,906.200256 175.985626,899.540161 
	C175.972473,895.218567 176.066238,890.895874 176.000214,886.575439 
	C175.952789,883.471130 177.319611,881.932129 180.454697,881.969421 
	C182.448624,881.993103 184.448029,881.855652 186.436462,881.957153 
	C188.332779,882.054016 190.956024,881.597229 190.931015,884.512268 
	C190.909103,887.067627 188.440979,886.719910 186.714966,886.878662 
	C185.102310,887.027039 183.465271,886.910461 181.911316,886.910461 
	C180.717606,890.392456 181.739426,891.716309 184.919464,891.736755 
	C186.613922,891.747681 189.083511,891.282288 189.007126,894.042542 
	C188.931824,896.764282 186.459976,896.073608 184.778076,896.217590 
	C183.013474,896.368530 181.412750,896.482117 181.366394,898.847107 
	C181.314636,901.488037 183.046997,901.726135 185.028488,901.714600 
	C185.859406,901.709778 186.692566,901.700317 187.521042,901.751953 
	C189.216675,901.857483 191.121124,901.919678 190.924820,904.317261 
	C190.757950,906.355530 188.971481,906.258911 187.490921,906.330017 
	C186.164047,906.393799 184.832108,906.352600 183.031555,906.356262 
z"/>
<path fill="#000000" opacity="1.000000" stroke="none" 
	d="
M692.226318,901.745972 
	C693.801758,901.827637 694.980042,901.792236 696.107666,902.014221 
	C697.168213,902.222961 697.835022,903.003601 697.779297,904.154785 
	C697.723572,905.306213 696.979187,906.075745 695.908325,906.110474 
	C692.430298,906.223389 688.942993,906.306885 685.468201,906.171997 
	C683.278076,906.086975 682.961304,904.227600 682.949951,902.523987 
	C682.912231,896.881897 682.978088,891.239136 682.994141,885.596619 
	C683.000183,883.462524 683.847290,882.031738 686.158936,882.005737 
	C689.143250,881.972229 692.131104,881.982666 695.112549,882.099243 
	C696.521362,882.154297 697.814270,882.771545 697.848267,884.415466 
	C697.883301,886.111511 696.519714,886.621887 695.146851,886.746094 
	C693.667297,886.879883 692.165771,886.787659 690.674255,886.766174 
	C689.367371,886.747437 688.364441,887.096802 688.266602,888.618835 
	C688.172607,890.080261 688.513489,891.312256 690.199219,891.569275 
	C691.179199,891.718689 692.185303,891.690552 693.177856,891.765259 
	C694.563049,891.869507 695.929016,892.106873 695.994263,893.878479 
	C696.060181,895.670654 694.711670,895.978943 693.324036,896.138977 
	C692.830444,896.195862 692.330444,896.201904 691.832947,896.220032 
	C690.105591,896.282776 688.422241,896.387207 688.289246,898.723389 
	C688.143860,901.280090 689.748718,901.768188 692.226318,901.745972 
z"/>
<path fill="#000000" opacity="1.000000" stroke="none" 
	d="
M745.433960,883.286255 
	C746.991882,884.482910 747.334778,885.605164 746.285767,886.921936 
	C745.420715,888.007751 744.355408,888.038452 743.168091,887.489380 
	C742.567139,887.211609 741.943298,886.959473 741.304565,886.792114 
	C739.730896,886.379578 738.170227,886.468994 737.583374,888.229187 
	C737.035339,889.872986 738.441589,890.580139 739.649109,891.148743 
	C741.146423,891.853882 742.759521,892.326355 744.219177,893.095581 
	C746.950195,894.534912 748.488892,896.771179 748.082092,899.982605 
	C747.657104,903.338074 745.624512,905.481140 742.434204,906.162598 
	C739.152283,906.863770 735.786499,906.948059 733.017395,904.456848 
	C731.939880,903.487427 731.414062,902.252808 732.360779,900.927368 
	C733.175232,899.787231 734.298706,899.890137 735.468445,900.470276 
	C736.354004,900.909546 737.258667,901.403625 738.210754,901.594971 
	C739.897766,901.934082 741.733887,901.943542 742.384399,899.954590 
	C743.002930,898.063293 741.362732,897.387878 740.011841,896.733093 
	C739.418640,896.445618 738.753845,896.309875 738.142212,896.055542 
	C733.097839,893.957886 731.054077,890.901794 732.177551,887.160217 
	C733.376709,883.166504 737.893372,881.047363 742.768982,882.228027 
	C743.569885,882.421997 744.330811,882.780945 745.433960,883.286255 
z"/>
<path fill="#000000" opacity="1.000000" stroke="none" 
	d="
M497.492920,889.002808 
	C499.219238,882.361694 505.014435,879.818054 510.560638,882.894470 
	C511.963409,883.672546 513.163574,884.578918 512.241394,886.405457 
	C511.422943,888.026550 510.187714,888.373962 508.527527,887.489380 
	C507.668884,887.031860 506.683075,886.673523 505.724121,886.578430 
	C504.491913,886.456299 503.404602,887.029724 502.956390,888.260437 
	C502.428192,889.710693 503.481537,890.408936 504.558746,890.914124 
	C505.906891,891.546387 507.307739,892.070068 508.700134,892.603394 
	C512.586792,894.092102 513.988831,897.028809 513.231567,900.929199 
	C512.485046,904.774231 509.705200,906.318542 506.009460,906.495667 
	C503.484253,906.616699 500.995056,906.431946 498.861298,904.901794 
	C497.587463,903.988220 496.561218,902.818848 497.682800,901.142273 
	C498.564056,899.825073 499.765015,899.632812 501.130554,900.466736 
	C501.695770,900.812012 502.255676,901.244812 502.877808,901.403442 
	C504.881317,901.914307 507.201599,902.242737 507.990753,899.857361 
	C508.815887,897.363342 506.320984,896.946167 504.702484,896.431702 
	C501.058380,895.273254 497.740356,893.932312 497.492920,889.002808 
z"/>
<path fill="#000000" opacity="1.000000" stroke="none" 
	d="
M480.467377,901.698914 
	C481.055420,901.715088 481.227875,901.686890 481.386108,901.722168 
	C483.409302,902.173645 486.901703,900.549988 486.888794,904.042175 
	C486.875977,907.511475 483.391022,906.270691 481.363312,906.286926 
	C470.712708,906.372253 472.810303,906.951172 472.612640,897.637268 
	C472.559875,895.150452 472.549591,892.662842 472.509888,890.175659 
	C472.466736,887.470215 470.955292,883.859741 474.098450,882.560120 
	C477.724609,881.060669 481.923920,881.549255 485.840851,882.429688 
	C486.899475,882.667664 487.227386,883.743896 487.094543,884.844482 
	C486.949707,886.044312 486.073090,886.559692 485.071381,886.697754 
	C483.434113,886.923401 481.769928,886.949890 480.118439,887.077698 
	C478.659302,887.190613 477.476532,887.707520 477.464600,889.405518 
	C477.452454,891.132690 478.645752,891.461731 480.104980,891.698792 
	C482.002686,892.007141 485.156830,890.600281 485.265625,893.863098 
	C485.377502,897.217224 482.184967,895.920044 480.290283,896.245239 
	C479.110077,896.447815 477.841644,896.471741 477.536804,897.870728 
	C477.211731,899.362671 477.144806,900.912292 479.066864,901.528625 
	C479.377625,901.628357 479.718292,901.634583 480.467377,901.698914 
z"/>
<path fill="#000000" opacity="1.000000" stroke="none" 
	d="
M712.365784,906.308228 
	C710.444031,905.951843 709.097656,905.337280 707.971069,904.283569 
	C707.003662,903.378479 706.690735,902.347778 707.462463,901.174561 
	C708.212646,900.033997 709.223694,899.731262 710.471130,900.360535 
	C711.213623,900.735168 711.921692,901.248169 712.709045,901.449951 
	C714.523438,901.914978 716.607483,902.297180 717.422119,900.070679 
	C718.190247,897.971191 716.289856,897.226074 714.778931,896.511719 
	C714.029907,896.157654 713.216614,895.941467 712.439758,895.643616 
	C709.422729,894.487244 707.159302,892.552979 707.067383,889.140625 
	C706.989807,886.260742 708.495911,884.079956 711.123596,882.768127 
	C714.414490,881.125305 717.592224,881.567688 720.635559,883.394409 
	C721.688965,884.026733 722.444763,884.998840 721.813660,886.313599 
	C721.276123,887.433655 720.375427,888.184998 719.004272,887.820679 
	C718.040833,887.564697 717.113892,887.173706 716.154541,886.899536 
	C714.808655,886.514954 713.334717,886.316345 712.688477,887.868713 
	C711.897888,889.767761 713.473511,890.544922 714.812500,891.214600 
	C715.847107,891.731995 717.003418,891.999634 718.074463,892.452026 
	C721.460205,893.882202 723.729004,896.223450 723.083679,900.125977 
	C722.429382,904.082947 719.811035,906.156189 715.787476,906.359497 
	C714.791077,906.409851 713.789429,906.358337 712.365784,906.308228 
z"/>
<path fill="#000000" opacity="1.000000" stroke="none" 
	d="
M663.556091,890.048523 
	C664.891296,892.669556 667.145569,891.702148 668.998962,892.013428 
	C670.543030,892.272705 672.103271,892.516418 671.951355,894.574524 
	C671.817932,896.381958 670.335449,896.640869 669.005249,896.434448 
	C664.037048,895.663513 662.930542,898.245300 663.315430,902.506348 
	C663.461548,904.124084 663.420105,906.082581 660.965454,906.043518 
	C658.478638,906.004028 658.731812,903.987793 658.714783,902.399048 
	C658.656006,896.922546 658.757568,891.444031 658.672668,885.968262 
	C658.630249,883.232788 659.862732,881.977234 662.520142,881.973694 
	C665.009277,881.970337 667.499817,881.925232 669.987061,881.995178 
	C671.758118,882.044922 673.425415,882.470886 673.292786,884.758179 
	C673.171326,886.853638 671.374146,886.523621 669.992126,886.966675 
	C667.760193,887.682312 663.880737,884.641846 663.556091,890.048523 
z"/>
<path fill="#000000" opacity="1.000000" stroke="none" 
	d="
M528.101440,900.767822 
	C528.094788,897.970703 528.100037,895.641602 528.067932,893.313049 
	C528.026794,890.322510 528.441284,887.120544 524.067078,886.598328 
	C522.811035,886.448425 522.173157,885.292542 522.451416,883.930725 
	C522.734375,882.546021 523.832397,882.058228 525.042419,882.033813 
	C529.030945,881.953369 533.021790,881.940979 537.011108,881.976379 
	C538.556641,881.990112 539.519104,882.855164 539.548157,884.452820 
	C539.573059,885.824890 538.729004,886.765015 537.435608,886.780396 
	C533.302612,886.829651 533.185364,889.528137 533.290955,892.579285 
	C533.388672,895.403809 533.419250,898.240845 533.262024,901.060303 
	C533.152832,903.019653 534.157471,905.981873 530.824341,906.073975 
	C527.516357,906.165344 528.369019,903.231201 528.101440,900.767822 
z"/>
<path fill="#000000" opacity="1.000000" stroke="none" 
	d="
M216.578430,903.213867 
	C216.782730,905.529114 215.642563,906.070251 213.942032,906.345642 
	C203.436066,908.047302 201.862198,906.730103 201.905869,896.095154 
	C201.920151,892.615417 201.890045,889.135437 201.907928,885.655701 
	C201.917007,883.889587 202.218307,882.127869 204.467407,882.181152 
	C206.637741,882.232544 207.026093,883.992920 207.059814,885.740784 
	C207.123734,889.053833 207.284927,892.380310 207.070908,895.679504 
	C206.796127,899.915344 207.876114,902.482239 212.794418,901.751465 
	C214.062653,901.562988 215.479767,901.579468 216.578430,903.213867 
z"/>
<path fill="#000000" opacity="1.000000" stroke="none" 
	d="
M307.482513,900.207764 
	C309.074493,902.226257 311.019073,901.559937 312.772491,901.715698 
	C314.414642,901.861633 316.353973,901.629700 316.241089,904.123352 
	C316.130219,906.573242 314.147430,906.279175 312.545288,906.322632 
	C310.229553,906.385620 307.910187,906.299377 305.593109,906.331482 
	C303.155548,906.365234 301.867889,905.226868 301.857544,902.772278 
	C301.833130,896.978638 301.820831,891.184875 301.835297,885.391235 
	C301.839233,883.809204 302.179810,882.278992 304.129333,882.164978 
	C306.338165,882.035828 306.930115,883.667542 306.993561,885.430664 
	C307.166077,890.223877 307.223541,895.021301 307.482513,900.207764 
z"/>
<path fill="#000000" opacity="1.000000" stroke="none" 
	d="
M864.128662,893.919067 
	C863.559021,899.160217 864.295837,902.745056 870.479431,901.832581 
	C871.844055,901.631226 873.178711,902.174683 873.264282,903.942139 
	C873.368347,906.089478 871.835510,906.248230 870.262390,906.319092 
	C870.096436,906.326599 869.929993,906.323730 869.764465,906.335754 
	C858.976685,907.118652 858.964478,907.118713 858.947083,896.299866 
	C858.941223,892.646790 858.962097,888.991943 859.076233,885.341248 
	C859.125732,883.759644 859.658081,882.262024 861.628723,882.326294 
	C863.565186,882.389282 864.023804,883.877014 864.066345,885.474121 
	C864.137024,888.129883 864.114624,890.788147 864.128662,893.919067 
z"/>
<path fill="#000000" opacity="1.000000" stroke="none" 
	d="
M226.878387,894.002441 
	C226.892197,890.698364 226.873199,887.883972 226.936279,885.071411 
	C226.973282,883.421753 227.600815,882.068420 229.503128,882.082581 
	C231.349670,882.096252 232.120911,883.359558 232.127029,885.044373 
	C232.149307,891.167725 232.147430,897.291626 232.078094,903.414490 
	C232.058762,905.121033 231.195892,906.249939 229.293625,906.136597 
	C227.611847,906.036316 227.036667,904.839233 226.985779,903.427124 
	C226.878540,900.451599 226.907181,897.471191 226.878387,894.002441 
z"/>
<path fill="#000000" opacity="1.000000" stroke="none" 
	d="
M757.679382,887.259155 
	C757.874084,884.928162 757.125122,882.277222 760.103149,882.241943 
	C763.122559,882.206238 762.503113,884.759949 762.489441,886.693787 
	C762.451965,891.990112 762.436096,897.286926 762.349304,902.582520 
	C762.325317,904.044312 762.423218,905.845581 760.357117,906.005981 
	C758.028992,906.186584 757.752686,904.399902 757.736084,902.651978 
	C757.688904,897.676392 757.693237,892.700378 757.679382,887.259155 
z"/>
<path fill="#000000" opacity="1.000000" stroke="none" 
	d="
M354.500366,900.698608 
	C356.778473,900.565613 358.157715,901.234802 358.196930,903.382812 
	C358.223969,904.865723 357.465210,905.929504 355.990692,906.317017 
	C354.784760,906.633911 353.562683,906.500732 352.918060,905.323120 
	C351.916016,903.492554 351.955383,901.801880 354.500366,900.698608 
z"/>
<path fill="#000000" opacity="1.000000" stroke="none" 
	d="
M549.077148,906.422485 
	C546.740723,906.019470 545.840637,904.784973 546.227600,902.840515 
	C546.528870,901.326477 547.705872,900.745605 549.192139,900.749329 
	C550.449951,900.752441 551.611633,901.139526 551.966553,902.405457 
	C552.568726,904.553528 551.607361,905.911072 549.077148,906.422485 
z"/>
<path fill="#000000" opacity="1.000000" stroke="none" 
	d="
M885.858643,900.848938 
	C888.663208,902.039612 888.848206,903.754456 887.174744,905.549011 
	C886.020630,906.786743 884.247131,906.828125 883.366882,905.372070 
	C882.033203,903.166199 882.448364,901.271362 885.858643,900.848938 
z"/>
</svg>